<svg id="Layer_1" data-name="Layer 1" xmlns="http://www.w3.org/2000/svg" viewBox="0 0 93.37 121.58"><defs><style>.cls-1{fill:#fcbaa2;}.cls-2{fill:#f2f0f0;}.cls-3{fill:#3d3a3a;}.cls-4{fill:#ffa95c;}.cls-5{fill:#fff;}.cls-6{fill:#e25333;}.cls-7{fill:#ef6f59;}.cls-8{fill:#e27b27;}.cls-9{fill:#ffcc5a;}.cls-10{fill:#e2af47;}.cls-11{fill:#6d6868;}</style></defs><title>convo</title><path class="cls-1" d="M63.6,39.69a.57.57,0,0,0,.34-.59c-.11-.43-.47-.28-.67-.13a5.44,5.44,0,0,1-1.14.4,1.88,1.88,0,0,0-1.39.8l-2.22.93.55,1.7,2.41-1.07c1.38.61,4,1.14,4.73,0C67.08,40.32,65.06,40.15,63.6,39.69Z" transform="translate(-17.13 -2.5)"/><path class="cls-2" d="M61.15,42.39,60,42.8,59,40.51l1.06-.3Z" transform="translate(-17.13 -2.5)"/><path class="cls-1" d="M26.67,55.63l1.77,2.54L29.79,57l-1.71-2.36Z" transform="translate(-17.13 -2.5)"/><path class="cls-2" d="M28.24,54.17l.67,1-2,1.45-.53-1Z" transform="translate(-17.13 -2.5)"/><path class="cls-3" d="M34.25,117.13l-.73,5.76a1.06,1.06,0,0,0,1,1.19h12.7l0,0a2.19,2.19,0,0,0-1.91-1.41c-2.35-.14-6.87-1-6.87-5.07Z" transform="translate(-17.13 -2.5)"/><path class="cls-3" d="M18.66,117.13l-1.49,5.62a1.05,1.05,0,0,0,1,1.33H26.1a2.16,2.16,0,0,0-1.42-1.55c-1-.33-2.36-1.42-1.87-5Z" transform="translate(-17.13 -2.5)"/><path class="cls-4" d="M59.41,40.25,48.65,42.53l-5.2-10-1.61-1.28a3.08,3.08,0,0,0-.44-.35l0,0h0a10.6,10.6,0,0,0-1.47-.73l-5.26-1.63L30,30.16a6.24,6.24,0,0,0-1.34.72h0l-1.87,1.27L21.05,45.38,26.4,56.14l2.24-1.73-4-8.91,3.64-6.86,1.34,18.14H44.24L43,39.44,46.73,46l3.38-.63,10.36-2.45Z" transform="translate(-17.13 -2.5)"/><path class="cls-2" d="M37.93,29.84a1.81,1.81,0,0,1-.09-.31l-3.22-1-2,.71a.9.9,0,0,0,0,.83c.48.93,2.64,1.61,3.87,1.61A1.56,1.56,0,0,0,38,31.07,1.22,1.22,0,0,0,37.93,29.84Z" transform="translate(-17.13 -2.5)"/><path class="cls-5" d="M30.84,56.86a.08.08,0,0,1-.08-.07L29.27,36.24a.09.09,0,0,1,.08-.09.07.07,0,0,1,.08.08l1.49,20.55a.07.07,0,0,1-.07.08Z" transform="translate(-17.13 -2.5)"/><path class="cls-1" d="M34.7,23.25a12.1,12.1,0,0,1-1.47,6.18c-.71,1,5.14,2.67,4.11.66-.6-1.59.11-3.44,1.18-5.06Z" transform="translate(-17.13 -2.5)"/><path class="cls-3" d="M34.7,23.25a10.25,10.25,0,0,1-.08,1.9A3.69,3.69,0,0,0,37.2,28a8.43,8.43,0,0,1,1.32-3Z" transform="translate(-17.13 -2.5)"/><path class="cls-1" d="M39.78,22.06a2.12,2.12,0,0,0,.54-.11.29.29,0,0,0,.14-.46c-.38-.51-.91-1.37-1.27-2A16.23,16.23,0,0,1,39,16.64c.07-2.15-6.7-2.85-5.06,6.6.61,3.46,2.31,4.64,6.13,4C42.86,26.71,41,25.6,39.78,22.06Z" transform="translate(-17.13 -2.5)"/><path class="cls-3" d="M40.69,12.84l-.16.08c.48-1.2-1.72-.63-3.66.1-2.22-.33-4.63-.86-6.21.53-2.62,2.31,1.4,9,2.83,9.09,3.22.27,1.59-6.05,1.59-6.05C42,18.16,43.2,11.48,40.69,12.84Z" transform="translate(-17.13 -2.5)"/><path class="cls-1" d="M35.38,21.69c0,1-.11,1.92-.75,1.91s-1.15-.6-1.5-1.5c-.49-1.25-.13-2,.73-2C34.53,20,35.35,20.43,35.38,21.69Z" transform="translate(-17.13 -2.5)"/><polygon class="cls-6" points="27.11 54.28 12.46 54.28 12.08 62.73 12.07 62.73 7.33 86.36 0.95 115.68 6.2 115.71 13.11 86.39 18.69 62.89 19.98 62.9 18.89 86.39 16.68 115.68 21.93 115.71 24.91 86.39 26.63 62.92 26.64 62.92 27.11 54.28"/><path class="cls-1" d="M28.58,56.42c.78-1.18,1.07-2.83,2.54-2.2,1.88.8,1.39,2.65-.81,3.64-.4.18-.53.66-.74.69C28.5,58.72,27.68,57.77,28.58,56.42Z" transform="translate(-17.13 -2.5)"/><path class="cls-7" d="M19.47,118.27h0a.08.08,0,0,1-.06-.09L26,88.87l4.76-23.82.27-3.95a.08.08,0,0,1,.07-.08c3.18-.26,3.33-4.2,3.33-4.24a.09.09,0,0,1,.08-.08h0a.09.09,0,0,1,.08.09s-.15,4.06-3.41,4.38L31,65.07,26.18,88.91,19.55,118.2A.08.08,0,0,1,19.47,118.27Z" transform="translate(-17.13 -2.5)"/><path class="cls-1" d="M83.12,40.24l-1.87-1.52a1.9,1.9,0,0,0-1-1.1c-.28-.2-1.23-.39-1.49-.6s-.55-.33-.67.1a.49.49,0,0,0,0,.34c-1.43,0-3-.21-2.58,1.18s3,1.57,4.52,1.38l2,1.69Z" transform="translate(-17.13 -2.5)"/><path class="cls-1" d="M73.65,19.89c-.39-.05-.57.39-.66.66-1-1.18-1.89-3.59-3-2.2-.88,1.1.45,3.38,1.47,4.5-.08.86-.24,2.62-.24,2.62l1.78,0,.17-2.4a1.92,1.92,0,0,0,.38-1.16,8.6,8.6,0,0,1,.3-1.35C74,20.33,74.09,20,73.65,19.89Z" transform="translate(-17.13 -2.5)"/><path class="cls-2" d="M70.93,23.37c0,.05,0,1.24,0,1.24l2.47.16-.06-1.1Z" transform="translate(-17.13 -2.5)"/><path class="cls-8" d="M95.84,117.13l.73,5.76a1.06,1.06,0,0,1-1,1.19H82.83v0a2.19,2.19,0,0,1,1.91-1.41c2.35-.14,6.88-1,6.88-5.07Z" transform="translate(-17.13 -2.5)"/><path class="cls-9" d="M97.64,30.16,93,28.53l-5.26,1.63h0L83,31.52,75.11,33l-1.6-8.65-2.83-.17,1.94,12.19L85,35l-.53,7.17-.22,3-.86,11.57H98l1.79-24.23C99.94,31.24,98.61,30.55,97.64,30.16Z" transform="translate(-17.13 -2.5)"/><path class="cls-8" d="M109,117.13l1.49,5.62a1.05,1.05,0,0,1-1,1.33h-7.91a2.16,2.16,0,0,1,1.42-1.55c1-.33,2.36-1.42,1.87-5Z" transform="translate(-17.13 -2.5)"/><path class="cls-2" d="M89.7,29.84c0-.1.07-.21.09-.31l3.22-1,2,.71a.9.9,0,0,1,0,.83c-.48.93-2.64,1.61-3.87,1.61a1.56,1.56,0,0,1-1.43-.61A1.22,1.22,0,0,1,89.7,29.84Z" transform="translate(-17.13 -2.5)"/><path class="cls-5" d="M96.79,56.86h0a.07.07,0,0,1-.07-.08L98.2,36.23a.07.07,0,0,1,.08-.08s.08,0,.07.09L96.87,56.79A.08.08,0,0,1,96.79,56.86Z" transform="translate(-17.13 -2.5)"/><path class="cls-1" d="M92.93,23.25a12,12,0,0,0,1.47,6.18c.71,1-5.14,2.67-4.11.66.6-1.59-.11-3.44-1.18-5.06Z" transform="translate(-17.13 -2.5)"/><path class="cls-3" d="M92.93,23.25a10.25,10.25,0,0,0,.08,1.9A3.68,3.68,0,0,1,90.42,28a8.23,8.23,0,0,0-1.31-3Z" transform="translate(-17.13 -2.5)"/><path class="cls-1" d="M88.59,16.64a16.23,16.23,0,0,1-.15,2.88c-.36.6-.89,1.46-1.27,2a.29.29,0,0,0,.13.46,2.22,2.22,0,0,0,.54.11c-1.18,3.54-3.07,4.65-.32,5.14,3.82.68,5.52-.5,6.12-4C95.29,13.79,88.52,14.49,88.59,16.64Z" transform="translate(-17.13 -2.5)"/><path class="cls-8" d="M97.54,13.62a1.29,1.29,0,0,0-.63.31c-.37-.91-1-2-1.85-1.45a1.16,1.16,0,0,0-.24.25c-.57-.82-1.48-1.8-2.2-1.06a1,1,0,0,0-.22.44c-.75-.69-1.93-1.54-2.48-.62a1.48,1.48,0,0,0-.12.81c-1-.22-2.4-.35-2.43.7a2.54,2.54,0,0,0,.7,1.29c-.47.38-.75.84-.39,1.35A3.18,3.18,0,0,0,91,16a3.31,3.31,0,0,0,1.52.57c-.09.38-1.52,6.29,1.6,6,1.29-.11,4.87-3.25,3.78-5.7a1.37,1.37,0,0,0,.25-.5S98.92,13.52,97.54,13.62Z" transform="translate(-17.13 -2.5)"/><path class="cls-1" d="M92.25,21.69c0,1,.11,1.92.75,1.91s1.15-.6,1.5-1.5c.49-1.25.13-2-.73-2A1.45,1.45,0,0,0,92.25,21.69Z" transform="translate(-17.13 -2.5)"/><polygon class="cls-3" points="78.11 86.39 87.17 115.71 92.42 115.68 83.89 86.36 81.3 62.73 81.29 62.73 80.91 54.28 66.26 54.28 66.73 62.92 66.74 62.92 68.46 86.39 73.91 115.71 79.15 115.68 74.48 86.39 73.39 62.9 74.61 62.89 78.11 86.39"/><path class="cls-2" d="M80.24,40.74l1,.72,1.54-1.93L81.86,39Z" transform="translate(-17.13 -2.5)"/><polygon class="cls-10" points="80.64 33.25 75.18 46.24 67.12 42.71 67.34 39.68 73.39 42.43 76.68 35.15 78.31 30.44 80.64 33.25"/><polygon class="cls-9" points="78.31 28.34 76.68 33.05 73.39 40.32 65.38 36.68 63.62 38.91 74.72 44.29 81.41 32.07 78.31 28.34"/><path class="cls-11" d="M108.16,118.27a.09.09,0,0,1-.08-.06L99.3,88.91,96.68,65.08l-.26-3.91C93.16,60.85,93,56.83,93,56.79a.09.09,0,0,1,.08-.09h0a.09.09,0,0,1,.08.08s.15,4,3.33,4.24a.08.08,0,0,1,.07.08l.27,4,2.61,23.82,8.78,29.28a.07.07,0,0,1,0,.1Z" transform="translate(-17.13 -2.5)"/><path class="cls-5" d="M90.49,42.89h0l-5.1-2.32a.08.08,0,0,1,0-.11.07.07,0,0,1,.1,0l5,2.29,3.26-7.2a.08.08,0,0,1,.11,0,.09.09,0,0,1,0,.11l-3.29,7.27a.1.1,0,0,1,0,0Z" transform="translate(-17.13 -2.5)"/><path class="cls-9" d="M75.05,13.79l-9.58-2.15A3.68,3.68,0,0,1,62.73,7l.53-1.86A3.69,3.69,0,0,1,67,2.51l9.72.62a3.7,3.7,0,0,1,3.39,4.4l-.67,3.38A3.69,3.69,0,0,1,75.05,13.79Z" transform="translate(-17.13 -2.5)"/><path class="cls-4" d="M77.53,16.52h0a4.85,4.85,0,0,1-3.07-2.25,3.19,3.19,0,0,1-.2-2.29.17.17,0,0,1,.21-.09.16.16,0,0,1,.09.2,2.91,2.91,0,0,0,.19,2,4.55,4.55,0,0,0,2.88,2.09.16.16,0,0,1,.1.2A.15.15,0,0,1,77.53,16.52Z" transform="translate(-17.13 -2.5)"/><path class="cls-5" d="M76.63,6h0L65.87,4.84a.32.32,0,0,1,.07-.64L76.66,5.38a.31.31,0,0,1,.28.35A.31.31,0,0,1,76.63,6Z" transform="translate(-17.13 -2.5)"/><path class="cls-5" d="M73.76,7.7h0L65.46,6.52a.32.32,0,0,1-.27-.36.33.33,0,0,1,.36-.27l8.26,1.18a.32.32,0,0,1,.27.36A.31.31,0,0,1,73.76,7.7Z" transform="translate(-17.13 -2.5)"/><path class="cls-4" d="M61.18,23.73l-9.49-.05A3.69,3.69,0,0,1,48,20.26l-.18-2.49a3.68,3.68,0,0,1,3.53-4l9.76-.37A3.68,3.68,0,0,1,65,17.23l-.08,2.92A3.7,3.7,0,0,1,61.18,23.73Z" transform="translate(-17.13 -2.5)"/><path class="cls-9" d="M47.27,26.08a.17.17,0,0,1-.16-.12.17.17,0,0,1,.12-.2,4.54,4.54,0,0,0,3-1.89,2.87,2.87,0,0,0,.32-2,.16.16,0,1,1,.3-.08A3.09,3.09,0,0,1,50.53,24a4.83,4.83,0,0,1-3.22,2Z" transform="translate(-17.13 -2.5)"/><path class="cls-5" d="M50.66,16.59a.31.31,0,0,1-.32-.31.32.32,0,0,1,.31-.33l10.77-.37a.3.3,0,0,1,.33.3.31.31,0,0,1-.31.33l-10.77.38Z" transform="translate(-17.13 -2.5)"/><path class="cls-5" d="M53.39,18.48a.32.32,0,0,1,0-.63l7.79-.24h0a.31.31,0,0,1,.32.31.31.31,0,0,1-.31.33l-7.79.23Z" transform="translate(-17.13 -2.5)"/><path class="cls-5" d="M52.27,20.55a.31.31,0,0,1-.31-.31.32.32,0,0,1,.3-.33l9.13-.27a.33.33,0,0,1,.33.31.32.32,0,0,1-.31.33l-9.13.27Z" transform="translate(-17.13 -2.5)"/></svg>