<svg id="OBJECTS" xmlns="http://www.w3.org/2000/svg" viewBox="0 0 472 316.42"><defs><style>.cls-1{fill:#0e3944;}.cls-2{fill:#ef6e4b;}.cls-3{fill:#ff8b66;}.cls-4{fill:#164353;}.cls-5{fill:#cfd8dc;}.cls-6{fill:#db614d;}.cls-7{fill:#1a4850;}.cls-8{fill:#6097b2;}.cls-9{fill:#205260;}.cls-10{fill:#8b383e;}.cls-11{fill:#662c33;}.cls-12{fill:#ce364c;}.cls-13{fill:#f24052;}.cls-14{fill:#a02e44;}.cls-15{fill:#ffb878;}.cls-16{fill:#adbec4;}.cls-17{fill:#0c476b;}.cls-18{fill:#105e99;}.cls-19{fill:#225866;}.cls-20{fill:#8bbddb;}.cls-21{fill:#3e6575;}</style></defs><title>friends</title><path class="cls-1" d="M129.26,161.06s-5.82-4-14.34-.91S104.5,174.67,106.6,184,97,225,97,225s6.09,8.57,27.37,5.29c0,0,15.88-28.85,14.7-49.55S129.26,161.06,129.26,161.06Z" transform="translate(-14 -92.63)"/><path class="cls-2" d="M136,196.85c8-2.56,12.89,4.1,17.48,16.5S159.58,227,159.58,227l17.69,11.37L175.8,245s-16.84-6.59-20.91-10.79-15.78-25.43-15.78-25.43Z" transform="translate(-14 -92.63)"/><path class="cls-3" d="M97,276.94s-3.47,17.58-2.9,44c0,0-13.67,20.17-2.39,77.72h5.93s4.83-49,8.53-62.23,17.37-17.34,18.11-57.68Z" transform="translate(-14 -92.63)"/><path class="cls-3" d="M69.92,328.63c-3.44-11.34-12.28-30.33-35-56.07a3.36,3.36,0,0,0-3.18.42c-1.93,1.18-1.93,2.57-1.93,2.57s11.38,24.79,18.63,42.95A16.09,16.09,0,0,0,63.4,328.63Z" transform="translate(-14 -92.63)"/><path class="cls-4" d="M111.22,350.56s.08,8.46-5.47,8.6c-7.84.21-8.13-8.33-17-8.05s-27.2,2.5-33-11.38c-3-7.17,1.11-16.37-8.6-23.31s-5-14.71,0-18.88-2.16-8.7,3-10.82a5.08,5.08,0,0,1,3.6-.07,8.74,8.74,0,0,1,1.88,1,18.3,18.3,0,0,1,4.69,5C75,252.33,101.23,247,101.23,247l25.9,8.94C127.76,318.64,111.22,350.56,111.22,350.56Z" transform="translate(-14 -92.63)"/><path class="cls-5" d="M136,196.85a33.9,33.9,0,0,1-14.64.73c-8.6-1.31-11.39-6.7-17.44-3.23-9.07,5.22-4.82,23.17-2.54,32.5.85,3.48,1.92,12.62-.13,20.17,0,0,12.08,9.39,25.91,8.93l7.54-16.41S151.08,219.92,136,196.85Z" transform="translate(-14 -92.63)"/><path class="cls-2" d="M120.63,181.79A37.15,37.15,0,0,1,118.49,198s4.49,6.62,8.77,2.26a42.77,42.77,0,0,1,5.2-16.59C135.67,177.79,120.63,181.79,120.63,181.79Z" transform="translate(-14 -92.63)"/><path class="cls-3" d="M113.75,182.08s-3.78-2.39-3.35,1.3c.49,4.28,4.67,5.11,5.11,3.61S113.75,182.08,113.75,182.08Z" transform="translate(-14 -92.63)"/><path class="cls-3" d="M135.46,177.45s2.4-3.78,3.59-.26c1.37,4.08-2,6.62-3.08,5.45S135.46,177.45,135.46,177.45Z" transform="translate(-14 -92.63)"/><path class="cls-3" d="M127.65,194.87c-6.87,1.53-11.74-2.08-14.75-15.52-1.55-6.94,1-12,8.71-13.7s11.87,1.81,13.42,8.74C138.27,188.83,134.73,193.28,127.65,194.87Z" transform="translate(-14 -92.63)"/><path class="cls-6" d="M133.83,179.69a1.67,1.67,0,0,1-3,1.25,1.5,1.5,0,0,1,1-1.83A1.48,1.48,0,0,1,133.83,179.69Z" transform="translate(-14 -92.63)"/><path class="cls-6" d="M119.81,183.23a1.67,1.67,0,1,1-1.81-1A1.49,1.49,0,0,1,119.81,183.23Z" transform="translate(-14 -92.63)"/><path class="cls-1" d="M129.06,173.43a.36.36,0,0,1-.2-.06A4,4,0,0,0,126,173a.36.36,0,0,1-.43-.26.35.35,0,0,1,.25-.42,4.69,4.69,0,0,1,3.42.46.34.34,0,0,1,.1.48A.36.36,0,0,1,129.06,173.43Z" transform="translate(-14 -92.63)"/><path class="cls-1" d="M116.14,176.32a.29.29,0,0,1-.18,0,.34.34,0,0,1-.12-.48,4.62,4.62,0,0,1,2.89-1.87.35.35,0,1,1,.14.69,4,4,0,0,0-2.43,1.54A.35.35,0,0,1,116.14,176.32Z" transform="translate(-14 -92.63)"/><path class="cls-7" d="M129.36,177.19c.19.86,0,1.63-.51,1.74s-1-.5-1.21-1.35,0-1.63.51-1.74S129.17,176.34,129.36,177.19Z" transform="translate(-14 -92.63)"/><path class="cls-7" d="M119.82,179.25c.2.85,0,1.62-.51,1.73s-1-.5-1.2-1.35,0-1.63.51-1.74S119.63,178.39,119.82,179.25Z" transform="translate(-14 -92.63)"/><path class="cls-7" d="M122.91,187.31s4.4-.35,6.35-2c0,0-.54,3.44-2.94,3.68A3.5,3.5,0,0,1,122.91,187.31Z" transform="translate(-14 -92.63)"/><path class="cls-7" d="M127,177.29s.15-2.24,1-2.28,1.88,1.63,1.88,1.63l1.08-.92-1.18.43s-1.06-1.73-1.87-1.55C126.71,174.85,127,177.29,127,177.29Z" transform="translate(-14 -92.63)"/><path class="cls-7" d="M120.35,179s-1.09-2-1.88-1.63-1,2.27-1,2.27l-1.36-.37,1.25-.11s.22-2,1-2.2C119.53,176.73,120.35,179,120.35,179Z" transform="translate(-14 -92.63)"/><path class="cls-6" d="M125.13,183.34l-.35-.67a.87.87,0,0,0,.56-1,1,1,0,0,0-.66-.75c-.13,0-.25.11-.34.35l-.71-.26a1.1,1.1,0,0,1,1.11-.85,1.68,1.68,0,0,1,1.34,1.35A1.64,1.64,0,0,1,125.13,183.34Z" transform="translate(-14 -92.63)"/><path class="cls-1" d="M114.3,184.5s-2.12-7.79-.86-13.29c0,0,6-8.31,17.49-4.21A46.84,46.84,0,0,1,136,180.21s.43-2.77-.72-8.93-6.61-10-14.1-8.75S105.7,171.21,114.3,184.5Z" transform="translate(-14 -92.63)"/><path class="cls-1" d="M126.38,165.28s.45,2-1.52,7.26a2.17,2.17,0,0,0-3.09,0c-1.66,1.49-5,1-6.2,1.79a3.58,3.58,0,0,0-1.15,2.64,7.25,7.25,0,0,1,0-5,10,10,0,0,0-2,6.38s-3-.49-2.91-5.52,7.28-13.16,15.3-12.63,9.92,13.22,9.92,13.22a2.31,2.31,0,0,0-1.87-.32,16.73,16.73,0,0,0-2-6.08,9,9,0,0,1,0,5.08,7.22,7.22,0,0,0-4-.8S128,169.15,126.38,165.28Z" transform="translate(-14 -92.63)"/><path class="cls-3" d="M101.87,196c3.9-3.08,6.94.83,7.68,6.24s-6.31,37.33-11.75,36.16c-2.1-.46-3-8.82-3-8.82a190.71,190.71,0,0,0,3.5-22.48C99,200.85,99.84,197.56,101.87,196Z" transform="translate(-14 -92.63)"/><path class="cls-3" d="M90.52,233.84c-5.25-5-14.67-21.61-17.06-30.07l4-1.6s12,17.17,17.48,21.5,7.39,9.15,5,13.28S91.62,234.9,90.52,233.84Z" transform="translate(-14 -92.63)"/><path class="cls-3" d="M75.1,192.7c-.28,5.43,4.15,6.71,2.18,10.88a2.85,2.85,0,0,1-1.66,1.55,3.35,3.35,0,0,1-3.47-.9,39,39,0,0,0-7.09-5.36c-2-1.14-.85-1.45-.85-1.45l-.57-.24c-1.4-.58-2.52-.81-1.51-1.43s5.21.77,5.21.77c-5.28-3.52-6.72-2.66-5.75-3.41,1.31-1,6.34,1.33,6.49,1.4-2.79-2.64-4.82-3.24-3.71-3.64S71,194.47,73,196l.73.56C73.7,192.09,75.1,192.7,75.1,192.7Z" transform="translate(-14 -92.63)"/><path class="cls-2" d="M73,196l.73.56a3.66,3.66,0,0,0,.28,3.65A3.28,3.28,0,0,1,73,196Z" transform="translate(-14 -92.63)"/><path class="cls-2" d="M68.4,199.09c-.47-.25-3.13-1.76-4.19-1.67l-.57-.24C64.36,196.24,67.87,198.71,68.4,199.09Z" transform="translate(-14 -92.63)"/><path class="cls-8" d="M89.37,279.67a1.07,1.07,0,1,1-1.07-1.07A1.07,1.07,0,0,1,89.37,279.67Z" transform="translate(-14 -92.63)"/><path class="cls-8" d="M108.41,287a1.07,1.07,0,1,1-1.07-1.06A1.07,1.07,0,0,1,108.41,287Z" transform="translate(-14 -92.63)"/><path class="cls-8" d="M124.63,291a1.07,1.07,0,1,1-1.07-1.07A1.07,1.07,0,0,1,124.63,291Z" transform="translate(-14 -92.63)"/><path class="cls-8" d="M99.7,265.73a1.07,1.07,0,1,1-1.07-1.07A1.07,1.07,0,0,1,99.7,265.73Z" transform="translate(-14 -92.63)"/><circle class="cls-8" cx="88.23" cy="183.24" r="1.07"/><path class="cls-8" d="M120.18,281.65a1.07,1.07,0,1,1-1.07-1.06A1.07,1.07,0,0,1,120.18,281.65Z" transform="translate(-14 -92.63)"/><path class="cls-8" d="M122.49,264.16a1.07,1.07,0,1,1-1.06-1.07A1.06,1.06,0,0,1,122.49,264.16Z" transform="translate(-14 -92.63)"/><circle class="cls-8" cx="96.37" cy="167.89" r="1.07"/><path class="cls-8" d="M79.92,300.49a1.07,1.07,0,1,1-1.07-1.07A1.06,1.06,0,0,1,79.92,300.49Z" transform="translate(-14 -92.63)"/><path class="cls-8" d="M64.71,296a1.07,1.07,0,1,1-1.07-1.07A1.07,1.07,0,0,1,64.71,296Z" transform="translate(-14 -92.63)"/><path class="cls-8" d="M55.64,287.6a1.06,1.06,0,0,1-.9.48A1.07,1.07,0,0,1,53.68,287a.75.75,0,0,1,.08-.37A8.74,8.74,0,0,1,55.64,287.6Z" transform="translate(-14 -92.63)"/><circle class="cls-8" cx="70.31" cy="221.78" r="1.07"/><path class="cls-8" d="M58.07,329.53a1.07,1.07,0,1,1-2.13,0,1.07,1.07,0,0,1,2.13,0Z" transform="translate(-14 -92.63)"/><circle class="cls-8" cx="54.16" cy="227.73" r="1.07"/><circle class="cls-8" cx="37.55" cy="219.62" r="1.07"/><path class="cls-8" d="M66,344.2A1.07,1.07,0,1,1,65,343.13,1.07,1.07,0,0,1,66,344.2Z" transform="translate(-14 -92.63)"/><path class="cls-8" d="M76.18,288.08A1.07,1.07,0,1,1,75.12,287,1.06,1.06,0,0,1,76.18,288.08Z" transform="translate(-14 -92.63)"/><path class="cls-8" d="M86.44,270.11A1.07,1.07,0,1,1,85.37,269,1.06,1.06,0,0,1,86.44,270.11Z" transform="translate(-14 -92.63)"/><path class="cls-8" d="M98,255.15a1.07,1.07,0,0,1-2.13,0,1.07,1.07,0,1,1,2.13,0Z" transform="translate(-14 -92.63)"/><path class="cls-8" d="M74.53,276.94a1.07,1.07,0,1,1-1.07-1.07A1.07,1.07,0,0,1,74.53,276.94Z" transform="translate(-14 -92.63)"/><path class="cls-8" d="M87.51,259.45a1.07,1.07,0,1,1-1.07-1.07A1.07,1.07,0,0,1,87.51,259.45Z" transform="translate(-14 -92.63)"/><path class="cls-8" d="M67.09,307.51A1.07,1.07,0,1,1,66,306.44,1.07,1.07,0,0,1,67.09,307.51Z" transform="translate(-14 -92.63)"/><path class="cls-8" d="M53.68,298.08a1.07,1.07,0,1,1-2.13,0,1.07,1.07,0,0,1,2.13,0Z" transform="translate(-14 -92.63)"/><circle class="cls-8" cx="77.5" cy="202.25" r="1.07"/><circle class="cls-8" cx="99.57" cy="207.86" r="1.07"/><path class="cls-8" d="M113.57,270.11A1.07,1.07,0,1,1,112.5,269,1.06,1.06,0,0,1,113.57,270.11Z" transform="translate(-14 -92.63)"/><path class="cls-8" d="M126.4,272.34a1.07,1.07,0,1,1-1.07-1.06A1.07,1.07,0,0,1,126.4,272.34Z" transform="translate(-14 -92.63)"/><path class="cls-8" d="M100.77,308.58a1.07,1.07,0,1,1-1.07-1.07A1.06,1.06,0,0,1,100.77,308.58Z" transform="translate(-14 -92.63)"/><circle class="cls-8" cx="76.43" cy="234.93" r="1.07"/><circle class="cls-8" cx="60.05" cy="237.97" r="1.07"/><circle class="cls-8" cx="105.11" cy="221.78" r="1.07"/><path class="cls-8" d="M105.43,322.5a1.07,1.07,0,1,1-1.07-1.07A1.07,1.07,0,0,1,105.43,322.5Z" transform="translate(-14 -92.63)"/><path class="cls-8" d="M83.24,346.33a1.07,1.07,0,1,1-1.07-1.06A1.07,1.07,0,0,1,83.24,346.33Z" transform="translate(-14 -92.63)"/><circle class="cls-8" cx="84.64" cy="248.14" r="1.07"/><circle class="cls-8" cx="100.5" cy="241.86" r="1.07"/><path class="cls-8" d="M108.41,352.85a1.07,1.07,0,1,1-1.07-1.07A1.07,1.07,0,0,1,108.41,352.85Z" transform="translate(-14 -92.63)"/><path class="cls-4" d="M107.24,409.06H89.71c-1.15-3.27,1-6.54.61-9.42-.61-4.86,2.22-2.18,2.22-2.18.5-5.22,7.85-6.21,7.77-3.88-.12,3.43.54,5.55,1.52,7,2,2.85,5.22,2.83,5.77,4.88.06.19.1.39.14.57C108.28,408.56,107.24,409.06,107.24,409.06Z" transform="translate(-14 -92.63)"/><path class="cls-9" d="M107.74,406c-3.63.85-12-.25-12.34-2.36s4.19-3,6.43-3.09c2,2.85,5.22,2.83,5.77,4.88C107.66,405.62,107.7,405.82,107.74,406Z" transform="translate(-14 -92.63)"/><path class="cls-4" d="M35.17,273.26c-1.86-1.7-4.89,1.11-4.89,1.11s1.63,2.42.57,3.4-2.27-1.26-4.35-.28a4.4,4.4,0,0,0-.51.29c-1.62,1-3.31,3-4.67,4.54l-.79.85c-1.59,1.67-5.69,2.65-6.45-1.79s4.23-9.65,9.71-14.44,9-1.94,9-1.94a8.64,8.64,0,0,1,1.24,3.26c0,1.25,1.11,1.87,1.73,3.06A1.51,1.51,0,0,1,35.17,273.26Z" transform="translate(-14 -92.63)"/><path class="cls-9" d="M26,277.78c-1.62,1-3.31,3-4.67,4.54-2.06.49-3.9.34-4.19-1.59-.7-4.66,8.6-10.59,7.86-7.31A5.82,5.82,0,0,0,26,277.78Z" transform="translate(-14 -92.63)"/><path class="cls-5" d="M350.62,401.47a6.82,6.82,0,0,1-2.38-2.71,27.41,27.41,0,0,1,0-7.65c.62-3.92-1.09-7.13-6.64-8.33-5.39-1.17-8.6,1.43-7.35,12.28h0c-.82,4.51-1,9.66.88,14h16.61S354.36,403.44,350.62,401.47Z" transform="translate(-14 -92.63)"/><path class="cls-3" d="M365.19,343a50.42,50.42,0,0,1-6.1,21.92c-6.22,11.31-13.91,26.83-13.91,26.83s-5.12,5-8.37-3.28c0,0,2.29-28.82,7.57-39.37S365.19,343,365.19,343Z" transform="translate(-14 -92.63)"/><path class="cls-3" d="M444.86,307.74s9.89,41.61,16.18,52.59c0,0-1.44,4.59-8.26,6,0,0-21.53-31.64-22.91-45S444.86,307.74,444.86,307.74Z" transform="translate(-14 -92.63)"/><path class="cls-10" d="M449.64,317.53c-2.63,6.34-23,6.68-23,6.68l-1.55-2.29-.41-.6-3.18-4.68s-33.69-33-40.25-30.27h0a3,3,0,0,0-.55.32c-4.51,3.22-4.93,20.87-10.26,50.48a51.69,51.69,0,0,1-2.5,8.35c-.1.24-.19.47-.28.7-.49,1.25-.83,2-.83,2-20.56,8.33-27.35-8.13-27.35-8.13s.25-.48.6-1.24l.26-.56c1.08-2.37,2.8-6.49,2.78-8.67q0-3.57-.06-6.89c0-.2,0-.39,0-.58,0-7.12,0-13.3,0-18.67V303c0-2.34.06-4.53.1-6.57v-.58c.18-9.36.48-15.61.8-19.77,0-.19,0-.39,0-.57.57-7,1.17-7.69,1.17-7.69l-4.12-28.64H386s6.75,6.76,15.51,15.69l.55.54c3.17,3.23,6.6,6.74,10.05,10.31l.4.41,4,4.18c.16.17.32.35.49.51,4.5,4.68,8.88,9.29,12.62,13.32.13.13.26.26.38.4,5.12,5.54,9,10,10.36,12a83.41,83.41,0,0,1,7.87,16.93h0c.08.2.14.38.21.57C449.24,316.17,449.64,317.53,449.64,317.53Z" transform="translate(-14 -92.63)"/><path class="cls-11" d="M351.94,272.06a12.16,12.16,0,0,1-7.94,4c0-.19,0-.39,0-.57a11.51,11.51,0,0,0,7.48-3.78,12.56,12.56,0,0,0,2.57-8.6l.56-.07A13,13,0,0,1,351.94,272.06Z" transform="translate(-14 -92.63)"/><path class="cls-11" d="M402.09,255.37l-.52,0c-5,0-10.22-5.47-10.48-5.74l.4-.39c.06.08,5.26,5.52,10.05,5.56Z" transform="translate(-14 -92.63)"/><path class="cls-11" d="M368,345.52c-.1.24-.19.47-.28.7a26.5,26.5,0,0,1-9.17,1.72c-8.88,0-15-5.14-18.41-9l.26-.56C344.69,343.41,353.91,350.88,368,345.52Z" transform="translate(-14 -92.63)"/><path class="cls-11" d="M380,276.06a46.73,46.73,0,0,1,1.24,10.31,3,3,0,0,0-.55.32c0-16.76-9.73-29.84-9.84-30l.44-.34a57.79,57.79,0,0,1,8.56,19.11,5,5,0,0,0,2.22-3.19c1.4-5.88-5-15.49-5-15.59l.45-.32c.27.42,6.55,9.92,5.11,16A5.65,5.65,0,0,1,380,276.06Z" transform="translate(-14 -92.63)"/><path class="cls-11" d="M430.08,284.5c-1.66,1.79-3.21,3.33-3.35,3.46l-.3.3-.15-.4c-2.18-5.7-16.16-18-16.31-18.16l-.17-.16,2.34-3.86.4.41-2,3.24a13.61,13.61,0,0,0,6,.94c.16.17.32.35.49.51a8.53,8.53,0,0,1-1.46.13,15,15,0,0,1-4.29-.75c3.17,2.87,13,12,15.31,17.11.87-.86,2-2,3.06-3.17C429.83,284.23,430,284.36,430.08,284.5Z" transform="translate(-14 -92.63)"/><path class="cls-11" d="M353.31,322.68l-.22,0a27.94,27.94,0,0,1-5.63.58,16.44,16.44,0,0,1-4.37-.52c0-.2,0-.39,0-.58,3.66,1.06,8.56.24,9.67,0l-.93-23.1a7.55,7.55,0,0,1-3.49,3.95,6.69,6.69,0,0,1-3.09.69,10.39,10.39,0,0,1-2.14-.24V303a7.22,7.22,0,0,0,5-.38,7.54,7.54,0,0,0,3.58-4.65c-1.85.28-5.6-.67-8.45-1.54v-.58c3.08.93,7.24,2,8.74,1.49l.35-.12Z" transform="translate(-14 -92.63)"/><path class="cls-11" d="M448.52,314a28.16,28.16,0,0,1-20,8.06,32.67,32.67,0,0,1-3.36-.18l-.41-.6c12.37,1.42,20.14-4.38,23.59-7.85C448.39,313.67,448.45,313.85,448.52,314Z" transform="translate(-14 -92.63)"/><path class="cls-12" d="M394.34,117.41s-1.24-2.85-6.45-2.85c-4,0-5.56,2.22-5.56,2.22-2.41,7-5,34-5.92,34.91-.47.49-30.3,20.58-30.3,20.58,16.19.3,26.29,20.25,26.29,20.25.52-6.55,18.8-32.53,19-34.85C391.77,153.3,399.5,133.78,394.34,117.41Z" transform="translate(-14 -92.63)"/><path class="cls-12" d="M342.56,258.18s-.15,5.62,1.67,6a51.11,51.11,0,0,0,33.64-3c17-7.74,20-13.47,15-17.73S342.56,258.18,342.56,258.18Z" transform="translate(-14 -92.63)"/><path class="cls-13" d="M335.74,176.16s-15.49-1.84-24.37,2c0,0-2.48,11,9.72,35.59s9.37,40.1,23.14,45.93c12.2,5.17,48.17-10.22,49.3-15.32C396.37,231.51,374.37,209,373,195.9S358.83,163.2,335.74,176.16Z" transform="translate(-14 -92.63)"/><path class="cls-12" d="M311.37,178.16c-10.83,3.85-23,16-23,21.86s10.15,8.12,10.15,8.12L315.18,200s4.78-3.33,1.74-13S311.37,178.16,311.37,178.16Z" transform="translate(-14 -92.63)"/><path class="cls-5" d="M355.85,189a18.33,18.33,0,0,1-9.74-2.95,5.13,5.13,0,0,1-2.37-3.19c-.61-3.84,3.13-5.8,3.29-5.88l.5,1c-.13.07-3.18,1.68-2.7,4.72a4.19,4.19,0,0,0,1.92,2.46,16.43,16.43,0,0,0,10.76,2.6,3.69,3.69,0,0,0,2.76-1.51,2.57,2.57,0,0,0,.07-2l1-.44a3.7,3.7,0,0,1-.11,2.94,4.68,4.68,0,0,1-3.55,2.09A10.83,10.83,0,0,1,355.85,189Z" transform="translate(-14 -92.63)"/><path class="cls-5" d="M342.12,200.71c-2.4,0-6.37-1-6.93-4.93a19.28,19.28,0,0,1,.06-5.14c.24-2.17.42-3.88-.84-5.94-2.09-3.38-4.93-3.61-5.05-3.62l.07-1.11c.14,0,3.52.25,5.93,4.15,1.46,2.38,1.23,4.45,1,6.64a18.13,18.13,0,0,0-.06,4.86c.6,4.25,6,4,6.24,4l.06,1.11Z" transform="translate(-14 -92.63)"/><path class="cls-12" d="M345.49,180.78s8.19-5.57,6.24-11.61-28.31-5.62-35.11,1.6,14.71,12,14.71,12C333,179.42,343.64,179.05,345.49,180.78Z" transform="translate(-14 -92.63)"/><path class="cls-14" d="M330.77,179.84c-3.89-1.32-6.19-4.12-5.36-7.36s17.54-3.33,20.7-.74S344.82,184.61,330.77,179.84Z" transform="translate(-14 -92.63)"/><path class="cls-2" d="M328.92,170.74s3.43,5.87,1.85,9.1c0,0,11.79,4.07,11.79-2.53,0,0-2.22-4.94-1.39-8.14Z" transform="translate(-14 -92.63)"/><path class="cls-15" d="M325,165.61s-5.79-9.28-5.25-18.14c.27-4.43,2.55-6.17,2.55-6.17s-1.84-2.56.13-6.47c0,0,2.73,3.16,12.3,2.16,9.24-1,10.16,5.63,10.16,5.63,6.6,1,2.15,20.95-2.46,23Z" transform="translate(-14 -92.63)"/><path class="cls-3" d="M322.53,157s-3.33-3.32-3.74.56c-.48,4.5,3.61,6.32,4.41,4.89S322.53,157,322.53,157Z" transform="translate(-14 -92.63)"/><path class="cls-3" d="M345.85,157.28s3.33-3.33,3.74.56c.47,4.5-3.62,6.31-4.42,4.88S345.85,157.28,345.85,157.28Z" transform="translate(-14 -92.63)"/><path class="cls-3" d="M333.84,173.34c-7.39,0-11.56-4.82-11.56-19.3,0-7.46,3.8-12,12.07-12s11.76,4.58,11.76,12C346.11,169.6,341.47,173.34,333.84,173.34Z" transform="translate(-14 -92.63)"/><path class="cls-6" d="M343.67,159.21a1.75,1.75,0,1,1-1.92-1.06A1.56,1.56,0,0,1,343.67,159.21Z" transform="translate(-14 -92.63)"/><path class="cls-6" d="M328.47,159.61a1.75,1.75,0,1,1-1.62-1.47A1.57,1.57,0,0,1,328.47,159.61Z" transform="translate(-14 -92.63)"/><path class="cls-15" d="M340.41,151.44a.33.33,0,0,1-.28-.07,4.27,4.27,0,0,0-3-.58.38.38,0,0,1-.43-.29.37.37,0,0,1,.3-.43,4.87,4.87,0,0,1,3.55.72.37.37,0,0,1,.07.51A.35.35,0,0,1,340.41,151.44Z" transform="translate(-14 -92.63)"/><path class="cls-15" d="M326.27,151.5a.4.4,0,0,1-.24-.14.37.37,0,0,1,.05-.52,5,5,0,0,1,3.53-.83.38.38,0,0,1,.31.43.37.37,0,0,1-.42.3,4.3,4.3,0,0,0-2.95.67A.37.37,0,0,1,326.27,151.5Z" transform="translate(-14 -92.63)"/><path class="cls-7" d="M339.65,155.61c0,.92-.41,1.67-.92,1.67s-.93-.75-.93-1.67.42-1.66.93-1.66S339.65,154.7,339.65,155.61Z" transform="translate(-14 -92.63)"/><path class="cls-7" d="M329.78,155.61c0,.92-.41,1.67-.92,1.67s-.93-.75-.93-1.67.42-1.66.93-1.66S329.78,154.7,329.78,155.61Z" transform="translate(-14 -92.63)"/><path class="cls-15" d="M324.54,143.6a50.45,50.45,0,0,0,19.17,2.07s2.4,3,2.11,13.59c0,0,6.61-19.07-12.69-19.07s-10.6,18.65-10.6,18.65S321,147.17,324.54,143.6Z" transform="translate(-14 -92.63)"/><path class="cls-6" d="M334.3,160.55l-.55-.56,1.46-1.45c-1.42-2-1.41-6.64-1.41-6.85h.79c0,.05,0,5,1.44,6.6l.25.28Z" transform="translate(-14 -92.63)"/><path class="cls-7" d="M329.4,163s7.27.3,10.94-.67a4.87,4.87,0,0,1-5,5.55C329.4,168.13,329.4,163,329.4,163Z" transform="translate(-14 -92.63)"/><path class="cls-5" d="M360.48,183c1.38-.26,1.25,3.37,0,2.32S359.09,183.22,360.48,183Z" transform="translate(-14 -92.63)"/><path class="cls-5" d="M343.74,200.56c-.21,1.39-3.6.07-2.19-.76S344,199.16,343.74,200.56Z" transform="translate(-14 -92.63)"/><path class="cls-2" d="M328.84,208.14s-2.2,5.65-2.08,8.84,1.17,2.78,1.17,2.78a3.41,3.41,0,0,0-2,2.5c-.32,1.84,4.33,3.19,4.65,3.19s3.59-1.25,3.59-1.25l.69-10.45-2.9-1.82Z" transform="translate(-14 -92.63)"/><path class="cls-3" d="M330.6,207.41a44.76,44.76,0,0,1,5.56,4c1.56,1.53.67,13.32,0,13.88s-5.78,1.7-6.76,1.06.38-4.11.38-4.11,2.57-.56,2.2.41a2.57,2.57,0,0,0,0,1.81l1-.42a12.44,12.44,0,0,1,0-4.58c.52-1.94-3.61-4-4.11-7.55S330.6,207.41,330.6,207.41Z" transform="translate(-14 -92.63)"/><path class="cls-12" d="M289,201.66c-1.28-5.55,4.22-7.51,11.88-6.57,8.88,1.1,27.12,3.42,31.09,13,0,0,1.29,3.79-2.06,5.61C320.55,218.85,291.43,212.08,289,201.66Z" transform="translate(-14 -92.63)"/><path class="cls-14" d="M316.8,198s-10.59-4.39-15.86-4.84S308.23,197.3,316.8,198Z" transform="translate(-14 -92.63)"/><path class="cls-3" d="M396.15,102.68a23.78,23.78,0,0,0-2.12,4.45c-.56,3-.88,4.62-1.92,6s-.49,3.77-.49,3.77-4,2.08-7.44-.49c0,0,.36-2.38,0-3.06-.7-1.36-2.94-2.08-3.71-4.81a21.26,21.26,0,0,0-3.06-5.79s.65-1.43,1.85-.56,2,3.07,2.63,3.29a2.07,2.07,0,0,0,.4.09h0a1.64,1.64,0,0,0,1.32-.35.19.19,0,0,0,.07-.06c1.1-1.28,1.36-5,1.31-6.71-.06-2.33,0-5.55,1.45-5s.12,1.85,1.22,7l.53.06c.1.37,1.08-3.12,1.31-6.39.17-2.26,1.65-1.42,2-.71s-.17,3-.27,4.58c-.08,1.08-.17,2.2-.22,2.87l.62.34c2.24-3.91,1.48-5.53,2.79-5.61s.83,3.22.13,4.48a12.19,12.19,0,0,0-.82,2.79c2.3-2.66,2-4,3.1-3.88S397,101.77,396.15,102.68Z" transform="translate(-14 -92.63)"/><path class="cls-2" d="M386.22,108.8c-.77-2.14-3.55-3.12-3.89-3.23a1.64,1.64,0,0,0,1.32-.35A3.89,3.89,0,0,1,386.22,108.8Z" transform="translate(-14 -92.63)"/><path class="cls-5" d="M338,392.77s-1.53-3.13-.16-4.48,3,1.15,5.32.59,2.88-2.21,3.49.05S346.51,398.32,338,392.77Z" transform="translate(-14 -92.63)"/><path class="cls-16" d="M346.8,392.63s-6.28,2.23-9.54,0l.83,2.72s6.83.73,7.77-1Z" transform="translate(-14 -92.63)"/><path class="cls-16" d="M346.71,396s-5.75-.8-8.52.63V398s7.5-1.75,9.92,0Z" transform="translate(-14 -92.63)"/><path class="cls-16" d="M337.91,400.79a5.24,5.24,0,0,1,4.62-2.91,9.1,9.1,0,0,1,5.86,1.73S342.84,397.32,337.91,400.79Z" transform="translate(-14 -92.63)"/><path class="cls-5" d="M486,363a46.67,46.67,0,0,1-26.08,17.58c-4.36-3.49-4.47-7.62-4.47-7.62s-4.21-3.75-4.77-5.55,3.61-7.22,6.11-6.66a5.07,5.07,0,0,1,3.18,2.56c-2.07-4.65-.41-6.27,2.52-5.87s.16,1.13,2.35,3.59a3.17,3.17,0,0,0,.52.45,3.6,3.6,0,0,0,1.42.57,6.66,6.66,0,0,0,1.57.08c.29,0,.59-.05.89-.09a13.68,13.68,0,0,0,1.74-.42,15.78,15.78,0,0,0,2.81-1.21c3.82-2.09,5.43-2.8,8.34-2.06s2.85,2.93,2.85,2.93Z" transform="translate(-14 -92.63)"/><path class="cls-16" d="M486,363a46.67,46.67,0,0,1-26.08,17.58c7.67-3.3,14.72-7.62,19.54-12.94S486,363,486,363Z" transform="translate(-14 -92.63)"/><path class="cls-16" d="M465.36,361.49a3.6,3.6,0,0,0,1.42.57,3.74,3.74,0,0,0-3.13,3.2l-1.24-.4C462.68,361.73,465.15,361.5,465.36,361.49Z" transform="translate(-14 -92.63)"/><path class="cls-16" d="M467.33,365.57l-1.3,0a3.43,3.43,0,0,1,.75-3.55,6.66,6.66,0,0,0,1.57.08A3.71,3.71,0,0,0,467.33,365.57Z" transform="translate(-14 -92.63)"/><path class="cls-16" d="M470.54,364.86l-1.29.16a3.55,3.55,0,0,1,0-3,13.68,13.68,0,0,0,1.74-.42A3.75,3.75,0,0,0,470.54,364.86Z" transform="translate(-14 -92.63)"/><path class="cls-12" d="M346.91,228s2.86,15.38-2.91,21.51-1.95,1.1-.23-6.81S344.18,226.42,346.91,228Z" transform="translate(-14 -92.63)"/><path class="cls-12" d="M373.52,221.08s9.09,3,13.84,11.38C387.36,232.46,381,218.79,373.52,221.08Z" transform="translate(-14 -92.63)"/><path class="cls-3" d="M137.47,106.77a24.16,24.16,0,0,1,4.73,1.41c2.57,1.59,4,2.45,5.72,2.6s2.41,3.08,2.41,3.08,6.72,1.47,7.1-2.77c0,0-3.76-5.32-4-6-.54-1.43.43-3.57-1.08-6a21.6,21.6,0,0,1-2.23-6.17s-1.5-.46-1.66,1,.94,3.52.67,4.15a2.08,2.08,0,0,1-.2.36l0,0a1.59,1.59,0,0,1-1.14.75.16.16,0,0,1-.1,0c-1.69,0-4.64-2.37-5.85-3.53-1.68-1.61-4.13-3.71-4.68-2.29s1.28,1.33,4.35,5.59l-.3.44c.2.32-3-1.29-5.62-3.32-1.78-1.39-2.16.26-1.85,1S136,99,137.28,100c.85.67,1.74,1.35,2.27,1.76l-.16.69c-4.4-1-5.09-2.62-6-1.7s1.83,2.78,3.23,3.1a12.58,12.58,0,0,1,2.62,1.27c-3.51-.08-4.37-1.2-5-.31S136.26,106.75,137.47,106.77Z" transform="translate(-14 -92.63)"/><path class="cls-2" d="M148.67,103.52c-1.07-2,.07-4.73.22-5.06a1.59,1.59,0,0,1-1.14.75A3.91,3.91,0,0,0,148.67,103.52Z" transform="translate(-14 -92.63)"/><path class="cls-3" d="M335.33,106.77a24,24,0,0,0-4.72,1.41c-2.58,1.59-4,2.45-5.73,2.6s-2.4,3.08-2.4,3.08-6.73,1.47-7.11-2.77c0,0,3.76-5.32,4-6,.54-1.43-.43-3.57,1.08-6a21.43,21.43,0,0,0,2.24-6.17s1.49-.46,1.65,1-.94,3.52-.67,4.15a1.62,1.62,0,0,0,.21.36v0a1.61,1.61,0,0,0,1.14.75.16.16,0,0,0,.1,0c1.69,0,4.64-2.37,5.85-3.53,1.69-1.61,4.13-3.71,4.68-2.29s-1.28,1.33-4.35,5.59l.31.44c-.21.32,3-1.29,5.61-3.32,1.79-1.39,2.16.26,1.85,1S336.8,99,335.52,100c-.85.67-1.74,1.35-2.27,1.76l.16.69c4.41-1,5.09-2.62,6-1.7s-1.83,2.78-3.23,3.1a12.55,12.55,0,0,0-2.61,1.27c3.51-.08,4.36-1.2,4.95-.31S336.54,106.75,335.33,106.77Z" transform="translate(-14 -92.63)"/><path class="cls-2" d="M324.13,103.52c1.07-2-.07-4.73-.22-5.06a1.61,1.61,0,0,0,1.14.75A3.91,3.91,0,0,1,324.13,103.52Z" transform="translate(-14 -92.63)"/><path class="cls-1" d="M276.23,310.61l-12.92-80-25.87,2.89-25.87-2.89-12.91,80-6.21,77.58s2,6.43,14.88,2c0,0,9.57-72,11-73.54s16.69-48.59,16.69-48.59h4.75s15.2,47,16.68,48.59,11.06,73.54,11.06,73.54c12.9,4.44,14.88-2,14.88-2Z" transform="translate(-14 -92.63)"/><path class="cls-17" d="M229.29,153.16c1.64,1.59,9.68,4.46,13.92,0l2.88,2.83s-3.28,7.71-9,8-9.92-6.86-9.92-6.86Z" transform="translate(-14 -92.63)"/><path class="cls-17" d="M252.06,152.29c9.62-4.14,40.71-15.16,40.71-15.16s20.9-26.18,25.16-30.06c0,0,4.63.83,6,6.59,0,0-13.46,28.81-20.77,37.06s-44.36,26.09-44.36,26.09Z" transform="translate(-14 -92.63)"/><path class="cls-15" d="M218.38,151.69c2.87-1.81,17.24,7.81,17.24,7.81s18.68-9.92,23.07-8c0,0,3.95,5.29,5.54,18.88s1.69,69.54,1.69,69.54a97.64,97.64,0,0,1-29.56,4.44c-19.36,0-29.79-5.55-29.79-5.55S203.12,161.35,218.38,151.69Z" transform="translate(-14 -92.63)"/><path class="cls-2" d="M230.05,150.24s2.07,6.51,0,9c0,0,2.15,4.51,6,4.71,4.47.23,6-4.71,6-4.71s-2.36-6.29,0-8.5Z" transform="translate(-14 -92.63)"/><path class="cls-10" d="M224.89,143.83s-4.35-8.38-3.49-17.34,14.36-11,23.46-6.61c0,0-2.7-2.64-1.65-3.37s2.88,4,2.88,4,2.87-.88,3.31,0-2.94,1.36-2.94,1.36,5.87,3.26.39,20.58Z" transform="translate(-14 -92.63)"/><path class="cls-3" d="M224.24,138.53s-3.25-3.24-3.65.54c-.46,4.39,3.53,6.16,4.3,4.76S224.24,138.53,224.24,138.53Z" transform="translate(-14 -92.63)"/><path class="cls-3" d="M247,138.75s3.24-3.24,3.64.55c.47,4.39-3.52,6.16-4.3,4.76S247,138.75,247,138.75Z" transform="translate(-14 -92.63)"/><path class="cls-3" d="M235.27,154.42c-7.21,0-11.28-4.7-11.28-18.82,0-7.28,3.71-11.75,11.78-11.75s11.47,4.47,11.47,11.75C247.24,150.77,242.71,154.42,235.27,154.42Z" transform="translate(-14 -92.63)"/><path class="cls-6" d="M244.85,140.64a1.71,1.71,0,0,1-3.28.57,1.53,1.53,0,0,1,1.41-1.6A1.52,1.52,0,0,1,244.85,140.64Z" transform="translate(-14 -92.63)"/><path class="cls-6" d="M230,141a1.7,1.7,0,1,1-1.57-1.44A1.52,1.52,0,0,1,230,141Z" transform="translate(-14 -92.63)"/><path class="cls-10" d="M241.56,133.31a.36.36,0,0,1-.26-.11,4.1,4.1,0,0,0-2.78-1,.37.37,0,0,1-.37-.35.36.36,0,0,1,.35-.37,4.81,4.81,0,0,1,3.32,1.22.37.37,0,0,1,0,.51A.35.35,0,0,1,241.56,133.31Z" transform="translate(-14 -92.63)"/><path class="cls-10" d="M228,133.31a.35.35,0,0,1-.25-.1.36.36,0,0,1,0-.51,4.81,4.81,0,0,1,3.32-1.22.35.35,0,0,1,.34.37.37.37,0,0,1-.37.35,4.1,4.1,0,0,0-2.77,1A.36.36,0,0,1,228,133.31Z" transform="translate(-14 -92.63)"/><path class="cls-7" d="M240.93,137.13c0,.9-.4,1.62-.9,1.62s-.9-.72-.9-1.62.41-1.62.9-1.62S240.93,136.24,240.93,137.13Z" transform="translate(-14 -92.63)"/><path class="cls-7" d="M231.31,137.13c0,.9-.4,1.62-.9,1.62s-.9-.72-.9-1.62.41-1.62.9-1.62S231.31,136.24,231.31,137.13Z" transform="translate(-14 -92.63)"/><path class="cls-7" d="M231.31,146.71s6.36.82,9.62-.75c0,0-1.84,4.32-5.31,3.93A4.94,4.94,0,0,1,231.31,146.71Z" transform="translate(-14 -92.63)"/><path class="cls-10" d="M246.49,140.35s-.23-7.83-3.28-13.86c0,0-5.38,2.49-6.56,1.9s1.13-1.9,1.13-1.9-8.88,2.93-9.41,2.34,2.94-2.34,2.94-2.34l-5.53,1.9s-1.7,7.05-1,12c0,0-2.38-4.1-2.67-6.93s.95-10.9,9.27-11.48,13,1.3,15.07,5.12S248.27,135.59,246.49,140.35Z" transform="translate(-14 -92.63)"/><path class="cls-6" d="M236.52,144.44a6.52,6.52,0,0,1-1.62-.24l.2-.73c.76.2,1.94.33,2.2,0,.09-.1,0-.35-.1-.67-1-2.22-1.26-7.82-1.27-8.06l.77,0c0,.06.22,5.69,1.19,7.76a1.32,1.32,0,0,1,0,1.5A1.74,1.74,0,0,1,236.52,144.44Z" transform="translate(-14 -92.63)"/><path class="cls-18" d="M244.49,155.22s13,40.48,14.29,73.42c0,0,4.7,1.29,10-5.92s2.15-64.38-8-73.9C260.78,148.82,256.17,147.77,244.49,155.22Z" transform="translate(-14 -92.63)"/><path class="cls-17" d="M246.62,162.3s2.33-5.42,1.3-9.14-4.71,0-4.71,0S244.69,159.25,246.62,162.3Z" transform="translate(-14 -92.63)"/><path class="cls-17" d="M220.45,152.29c-9.63-4.14-40.71-15.16-40.71-15.16s-21-26.94-25.22-30.83a12,12,0,0,0-5.63,9.16s13.16,27,20.48,35.26,44.36,26.09,44.36,26.09Z" transform="translate(-14 -92.63)"/><path class="cls-18" d="M228,155.22s-13,40.48-14.28,73.42c0,0-4.71,1.29-10-5.92s-2.14-64.38,8-73.9C211.73,148.82,216.34,147.77,228,155.22Z" transform="translate(-14 -92.63)"/><path class="cls-17" d="M225.89,162.3s-2.34-5.42-1.3-9.14,4.7,0,4.7,0S227.81,159.25,225.89,162.3Z" transform="translate(-14 -92.63)"/><path class="cls-11" d="M293.94,409.06H268.05c-1.81-10.3,1.07-20.6,1.07-20.6l11.84-2c1.08,6.5,2.38,9.07,4.17,10.39h0c1.31,1,2.87,1.27,4.82,1.94a6.21,6.21,0,0,1,4,3.72A11,11,0,0,1,293.94,409.06Z" transform="translate(-14 -92.63)"/><path class="cls-10" d="M294,402.48c-6.38.8-20.4,2.17-19.55-1.53.71-3.09,6.63-3.92,10.71-4.13h0c1.31,1,2.87,1.27,4.82,1.94A6.21,6.21,0,0,1,294,402.48Z" transform="translate(-14 -92.63)"/><path class="cls-11" d="M207.23,409.06H181.34a11.92,11.92,0,0,1-.45-5,6.28,6.28,0,0,1,4.41-5.31c2.24-.77,4-1.06,5.37-2.38s2.68-4.11,3.65-9.95l11.83,2S209,398.76,207.23,409.06Z" transform="translate(-14 -92.63)"/><path class="cls-10" d="M180.89,404.07a6.28,6.28,0,0,1,4.41-5.31c2.24-.77,4-1.06,5.37-2.38,3.28,1,7.86,2.86,9.29,5.67C201.93,405.9,186.8,405.29,180.89,404.07Z" transform="translate(-14 -92.63)"/><path class="cls-4" d="M393.11,407.2a14.55,14.55,0,0,1-.11,1.86H361.54c0-.63,0-1.25,0-1.86a57.48,57.48,0,0,1,3-15.36l7.86-3.38a12.6,12.6,0,0,0,4.61,8.33,11.17,11.17,0,0,0,1.8,1.15c.29.16.57.3.87.43a15.8,15.8,0,0,0,2,.75,49.8,49.8,0,0,0,7.55,1.32C392.6,401,393.11,404.84,393.11,407.2Z" transform="translate(-14 -92.63)"/><path class="cls-19" d="M393.11,407.2a14.55,14.55,0,0,1-.11,1.86H361.54c0-.63,0-1.25,0-1.86Z" transform="translate(-14 -92.63)"/><path class="cls-19" d="M378.81,397.94l-4.37,1.4-.92-1.6,3.49-.95A11.17,11.17,0,0,0,378.81,397.94Z" transform="translate(-14 -92.63)"/><path class="cls-19" d="M381.69,399.12l-2.94,1.95-1.81-.71,2.74-2A15.8,15.8,0,0,0,381.69,399.12Z" transform="translate(-14 -92.63)"/><path class="cls-4" d="M272.93,407.2a8.26,8.26,0,0,1-.35,1.86H251.63a9.12,9.12,0,0,1-.59-1.86c-2.07-10,11.86-22.29,11.86-22.29l4.41,5.89s-.51,9.44,3.24,11.41A4.76,4.76,0,0,1,272.93,407.2Z" transform="translate(-14 -92.63)"/><path class="cls-19" d="M251,407.2h21.89a8.26,8.26,0,0,1-.35,1.86H251.63A9.12,9.12,0,0,1,251,407.2Z" transform="translate(-14 -92.63)"/><path class="cls-19" d="M269.59,401.45s-8.83-2-12.85.6v-1.46S264.16,397,269.59,401.45Z" transform="translate(-14 -92.63)"/><path class="cls-19" d="M267.84,399.21s-5.64-2.57-11.1,0l.62-1.47S263.89,395.28,267.84,399.21Z" transform="translate(-14 -92.63)"/><path class="cls-20" d="M383.61,318.07c0,8.43-7.47,77.13-7.47,77.13a43.78,43.78,0,0,1-13.48-.76c-2.05-34.81-2.25-64.76-2.25-64.76L324.55,302.8l-.09-.06s-.13.61-.38,1.7c-1.77,7.88-9.29,40.9-12.42,48.46-3.57,8.61-42.53,44.84-42.53,44.84-7.24-1-13.38-6.24-13.38-6.24,14-23.2,33.06-46.47,33.06-46.47,1.49-8.36,2.55-27,3.19-40.86l0-.64c.42-9.42.63-16.52.63-16.52l-6.57-13.48,41.76-15.35,9.36,12s2.14,2,5.51,5.17l.47.43C355.72,287.58,383.61,314.3,383.61,318.07Z" transform="translate(-14 -92.63)"/><path class="cls-8" d="M292,304.17l0-.64c8.79-4.78,7.32-12.39,7.29-12.47l.55-.11C299.89,291,301.47,299.21,292,304.17Z" transform="translate(-14 -92.63)"/><path class="cls-8" d="M323.9,297.42a46.63,46.63,0,0,1,.65,5.38l-.09-.06s-.13.61-.38,1.7c-.39-13.06-5.77-20.78-5.84-20.87l.46-.32a37.89,37.89,0,0,1,5.09,13.54c6.35-5.64.14-17.2.07-17.31l.49-.27C324.42,279.33,331,291.57,323.9,297.42Z" transform="translate(-14 -92.63)"/><path class="cls-8" d="M343.19,275.76l0,0a2.44,2.44,0,0,1-.87.14c-3.08,0-8.24-4.3-8.48-4.51l.36-.43c1.68,1.43,6.35,4.83,8.56,4.35Z" transform="translate(-14 -92.63)"/><path class="cls-16" d="M289,201.66s12.7-2,19.07,2,14.72,14.65,14.72,14.65-9.92,1.31-11,8.05C311.76,226.37,304.55,209.2,289,201.66Z" transform="translate(-14 -92.63)"/><path class="cls-5" d="M269.9,208.28c-5.37,2.91-14.35,13.81-14.76,20.52-.39,6.54,4.45,12.56,7.72,17.67,10.19,16,20.93,30.06,25.49,48.78,0,.12,23.31,9.36,50.64-23.49,0,0-15.44-20.78-20.78-38.47-2.17-7.2-4.38-14.85-8.55-21.19A22.68,22.68,0,0,0,289,201.66C282.09,202.22,275.2,205.42,269.9,208.28Z" transform="translate(-14 -92.63)"/><path class="cls-2" d="M267.65,201.59s3.44,5.87,1.85,9.1c0,0,11.79,4.07,11.79-2.53,0,0-2.22-4.94-1.38-8.14Z" transform="translate(-14 -92.63)"/><path class="cls-2" d="M293.85,241.8s-6.56,1.86-8.21,4.18-3.13,7.53-3.13,7.53h11.34l2.14-3.92,2.49-5.23Z" transform="translate(-14 -92.63)"/><path class="cls-4" d="M283,195s4.61-1.93,1.63-15.78c-2-9.18-4.82-10.55-6.66-10.63,0,0-2.25-3.39-10-1.76a14.48,14.48,0,0,0-11.48,10.35c-2,6.26,2,19.69,7.11,21Z" transform="translate(-14 -92.63)"/><path class="cls-3" d="M284.1,185.68s2.9-4,4-.06c1.27,4.62-2.68,7.21-3.76,5.85S284.1,185.68,284.1,185.68Z" transform="translate(-14 -92.63)"/><path class="cls-3" d="M259.82,189.94s-4-2.9-3.81,1.23c.28,4.77,4.86,6,5.44,4.33S259.82,189.94,259.82,189.94Z" transform="translate(-14 -92.63)"/><path class="cls-3" d="M275.11,204.63c7.71-1.27,11.23-7,8.73-22.12-1.28-7.79-6-11.91-14.66-10.49s-11.49,6.8-10.2,14.59C261.66,202.84,267.15,206,275.11,204.63Z" transform="translate(-14 -92.63)"/><path class="cls-6" d="M262.42,191.58a1.85,1.85,0,1,0,1.82-1.43A1.66,1.66,0,0,0,262.42,191.58Z" transform="translate(-14 -92.63)"/><path class="cls-6" d="M278.34,189.38a1.85,1.85,0,1,0,1.43-1.81A1.66,1.66,0,0,0,278.34,189.38Z" transform="translate(-14 -92.63)"/><path class="cls-7" d="M264.59,183.16a.43.43,0,0,1-.22-.06.4.4,0,0,1-.1-.55,5.18,5.18,0,0,1,3.33-1.89.38.38,0,0,1,.44.33.39.39,0,0,1-.34.44,4.48,4.48,0,0,0-2.79,1.56A.39.39,0,0,1,264.59,183.16Z" transform="translate(-14 -92.63)"/><path class="cls-7" d="M279.1,180.77a.4.4,0,0,1-.23-.08,4.45,4.45,0,0,0-3.14-.58.39.39,0,0,1-.46-.31.38.38,0,0,1,.3-.46,5.24,5.24,0,0,1,3.77.73.38.38,0,0,1,.07.54A.36.36,0,0,1,279.1,180.77Z" transform="translate(-14 -92.63)"/><path class="cls-7" d="M266,187.14c.16,1,.72,1.66,1.25,1.57s.84-.93.68-1.89-.72-1.66-1.25-1.57S265.84,186.18,266,187.14Z" transform="translate(-14 -92.63)"/><path class="cls-7" d="M276.29,185.44c.15,1,.71,1.66,1.25,1.57s.83-.93.67-1.89-.71-1.66-1.25-1.57S276.13,184.48,276.29,185.44Z" transform="translate(-14 -92.63)"/><path class="cls-7" d="M279.18,194.13s-6.69,1.79-10.4,1.08c0,0,2.56,3.23,6.22,2.3S279.18,194.13,279.18,194.13Z" transform="translate(-14 -92.63)"/><path class="cls-1" d="M279.49,175.5s-8.7,6.3-19.62,6.78l.31,9.72s-10.18-18.75,9.95-22.07,14.27,17.62,14.27,17.62S283.78,178.52,279.49,175.5Z" transform="translate(-14 -92.63)"/><path class="cls-6" d="M272.38,191.52l-.06-.84s1.17-.09,1.48-.81c.12-.3-.37-1.24-.81-2.07a15.81,15.81,0,0,1-1.68-4.2l.82-.16a15.05,15.05,0,0,0,1.61,4c.64,1.23,1.11,2.12.83,2.79A2.65,2.65,0,0,1,272.38,191.52Z" transform="translate(-14 -92.63)"/><path class="cls-12" d="M284.21,175.52c-14.63-6.35-28.44,6.82-28.44,6.82s-1.61-10.67,1.21-13.17a17.1,17.1,0,0,1,2.34-1.74c6.46-4.07,15.06-4,19-2.6a4.82,4.82,0,0,1,1.78,1C282.44,168.25,284.21,175.52,284.21,175.52Z" transform="translate(-14 -92.63)"/><path class="cls-5" d="M282.44,173.15a34.63,34.63,0,0,0-23.75,5.15s-.73-6.88.63-10.87c6.46-4.07,15.06-4,19-2.6C280.62,167.45,282.44,173.15,282.44,173.15Z" transform="translate(-14 -92.63)"/><path class="cls-14" d="M257,181.09s1.95-8.28,4.57-10.61c4.37-3.88,16.64-5.21,23.09-2.88s0,9.38,0,9.38S274.36,169.62,257,181.09Z" transform="translate(-14 -92.63)"/><path class="cls-3" d="M276,236.07a41,41,0,0,0,13.57,12.36s10.7-9.29,24.58-8.45c0,0-11.5,20.75-21.38,23-5.18,1.21-24-11.21-24-11.21S272.53,238.6,276,236.07Z" transform="translate(-14 -92.63)"/><path class="cls-16" d="M257.46,222c4.6-7.48,15.2,3.58,18.81,11.48s6.24,9.57,6.24,9.57-10.59,4.43-10.52,12.37C272,255.39,247.43,238.3,257.46,222Z" transform="translate(-14 -92.63)"/><path class="cls-2" d="M289.53,245s6.46-6.33,27.68-14.59l-2.74-8.62c2.43-3.21,6.91-3.21,6.91-3.21s10.87,15.36,9,19.94C329.21,241.4,306.53,244.4,289.53,245Z" transform="translate(-14 -92.63)"/><path class="cls-3" d="M312.77,232.49a5.68,5.68,0,0,1,1-2c.78-1.11.57-3.12.85-3.75s1.95-3.17,3.06-3.67,2.56-1.31,2.87.1-2,1-3,3a9,9,0,0,1,4.05-.31c1.78.43,2.29,2.06.08,2a9.83,9.83,0,0,0-4,1.21s2.3.34,1.93,1.4C319,232,316.2,231.06,312.77,232.49Z" transform="translate(-14 -92.63)"/><path class="cls-21" d="M155.82,261.39c1.9,4.86,9.67,13.19,9.67,13.19s19-11.38,27.74-6.6,15.72,7.71,21.4,5.63S196,227.23,196,227.23l-31.58-12s-.69,8-4.3,9.4-7.45,14.61-7.19,17.1S155.82,261.39,155.82,261.39Z" transform="translate(-14 -92.63)"/><path class="cls-2" d="M191.35,274.87s-8.14,16-25,36.4c0,0-1.72,24.31-46.17,62.56l-4.66-3.67S142,328.69,147.33,316s-2.92-24.37,21.44-56.53Z" transform="translate(-14 -92.63)"/><path class="cls-11" d="M165.43,246.62c-7,13.43-9.36,30.59-9.36,30.59l-3.19,8.06a89.86,89.86,0,0,0,24.39,8.32l5.25-13.88Z" transform="translate(-14 -92.63)"/><path class="cls-3" d="M202,273.61s3.47,17.58,2.9,44c0,0,13.68,20.17,2.39,77.72h-5.92s-4.84-49-8.54-62.23-17.37-17.34-18.11-57.68Z" transform="translate(-14 -92.63)"/><path class="cls-10" d="M205.46,292.48s-11.13,2-30.75,1.08l-.31-2.21-.08-.57-2-14.3a38.19,38.19,0,0,1-3.83-6.13c-.24-.44-.46-.9-.68-1.38-2.64-5.62-5-13.81-2.35-22.34l4.14.18.57,0,13.86.63.59,0,4.55.21.71,0,3,.13s15,13.51,12.33,38.49l.19,3.48,0,.56Z" transform="translate(-14 -92.63)"/><path class="cls-11" d="M170.14,246.85c-.38,1.14-3,9.62-1.68,23.5-.24-.44-.46-.9-.68-1.38-1-12.69,1.29-20.6,1.79-22.16.06-.18.1-.27.1-.28l.52.18A.81.81,0,0,1,170.14,246.85Z" transform="translate(-14 -92.63)"/><path class="cls-11" d="M205.35,290.42c-3.94,1-10.62,1.29-17,1.29-5.7,0-11.11-.23-14-.36l-.08-.57c5,.24,18.11.76,26.57-.17l-.55-8.93a56.23,56.23,0,0,0-6.06-25.48c-7.7-1.4-9.82-7.11-10.28-8.72-.07-.26-.1-.41-.1-.42l.55-.09a5,5,0,0,0,.14.54,11.83,11.83,0,0,0,9.37,8.05,54.92,54.92,0,0,0-4.82-7.84c-.24-.33-.4-.52-.41-.53l.42-.35s.28.33.7.92c2.58,3.5,11.27,16.65,11.05,33.89l.54,8.9a29.38,29.38,0,0,0,3.89-.69Z" transform="translate(-14 -92.63)"/><path class="cls-20" d="M177,186.39c-4.41-2.44-36.26,10.05-36.26,10.05s-4.71,8.4-1.77,11.7,13.35,1.84,16.55,0,11.64-3.24,11.64-3.24Z" transform="translate(-14 -92.63)"/><path class="cls-13" d="M205.14,159.88a16.63,16.63,0,0,1,9,10.11c2.4,7.58-4.79,26.77-2.3,35.59s2.1,25.47-5.67,29-23.68-2.77-27.1-12.39-1.95-46.08,4.63-58.48S203.56,157.54,205.14,159.88Z" transform="translate(-14 -92.63)"/><path class="cls-20" d="M197.58,192.57c1.74,1.87,6.2-1.46,6.2-1.46s-.09,16.54-4.9,17.8-17-13-16.55-16.91S193.74,188.42,197.58,192.57Z" transform="translate(-14 -92.63)"/><path class="cls-1" d="M179.06,188.44a34,34,0,0,0,13.33,6.09c8.47,2,13.06-2,17.39,3.44,6.5,8.2-4.08,23.31-9.64,31.14-2.08,2.92-6.45,11-7.34,18.78,0,0-14.69,4.27-27.37-1.27l-.94-18S156.5,204.29,179.06,188.44Z" transform="translate(-14 -92.63)"/><path class="cls-20" d="M194.25,206s6.72-16,8.66-17,6.88,1.43,7.87,3.62,0,7,0,7S205.48,193.49,194.25,206Z" transform="translate(-14 -92.63)"/><path class="cls-8" d="M226.41,273.6c-3,6.26-10.54,8-10.54,8s-.57-.86-1.53-2.42c-.1-.15-.21-.33-.31-.51-5.89-9.56-23.91-40.14-23.56-56.05a41.52,41.52,0,0,1,12.82-29.45c6.29,1.5,8.28,3.22,8.28,3.22a77.88,77.88,0,0,1,.18,23.83c-1.95,13-5.48,16.44-3.7,17.42s0,2.91,0,2.91,10.45,14.55,12.4,19.08l4.76,11.1c.09.23.18.45.27.65C226.05,272.75,226.41,273.6,226.41,273.6Z" transform="translate(-14 -92.63)"/><path class="cls-3" d="M208.27,196.44s-7.48,5.54-3.13,14l20.74,21.46c-11.38,12.13-12.51,17.11-20.74,22.7l3.13,4.83s28.81-22.14,28.85-27.53C237.14,229.61,219.52,201.71,208.27,196.44Z" transform="translate(-14 -92.63)"/><path class="cls-3" d="M204.69,254.62a62.61,62.61,0,0,0-6.44,1.06c-2.49.62-5.81,1.24-5.91,1.76s5.49,0,5.49,0-4.56,1.88-4.66,2.6,5.8-.52,5.8-.52-3.73,2.28-3.52,2.9,4.8-.93,4.8-.93a14.38,14.38,0,0,1-1.74,3.21s.89.49,2.7-1.52,4.69-1.36,7-3.14S206.77,254.35,204.69,254.62Z" transform="translate(-14 -92.63)"/><path class="cls-8" d="M183.5,191.1s-5.69,3.68-9.28,12.56-14.94,25.59-17.59,29.91-.81,27.82-.81,27.82-3.33-14.25-4.81-19.8,4.78-19.27,5.72-20,5.75.6,4.83-5,12-29.57,15.42-30.24C177,186.39,182.5,187.42,183.5,191.1Z" transform="translate(-14 -92.63)"/><path class="cls-8" d="M165.9,192.3a4.65,4.65,0,0,1-.34.56,14.51,14.51,0,0,1-3.69,3.33s-4.34,6.08-4.38,6.78-7.54,6-10.87,5.93h0a1.59,1.59,0,0,1-1.1-.38c-2-1.86,6.73-17.52,8.65-20.89.12-.23.22-.39.29-.5l.07-.15s-1.53-5.7,4.87-4.64c5.31.88,6.37,5.11,6.92,7.94A3,3,0,0,1,165.9,192.3Z" transform="translate(-14 -92.63)"/><path class="cls-3" d="M143.57,198.22c4.4-5.78,19.86-17,28-20.29l2,3.78s-15.73,13.83-19.43,19.75-8.27,8.36-12.65,6.39S142.65,199.43,143.57,198.22Z" transform="translate(-14 -92.63)"/><path class="cls-20" d="M164.37,191.11l-.83,1-.42.49-1.38,1.57s-3.46,4.2-3.33,5.89c.1,1.21-6.57,6.62-11.79,8.88-2.12.92-4,1.32-5.11.69-3.77-2.18-2.93-8.72-.79-13.15,1.87-3.86,10.12-8.85,12.24-10.07l.49-.29h0l.79-3.06s2.87-1.73,5.14-.67c0,0-5,.21-4.18,2.16S163,191.05,164.37,191.11Z" transform="translate(-14 -92.63)"/><path class="cls-3" d="M182.51,175.09c-5,2.07-4.3,6.62-8.91,6.62-2.86,0-3.23-3.27-3.23-3.27a35,35,0,0,0,2.28-9.8c.19-2.26.95-1.39.95-1.39,0-.21,0-.41,0-.61-.07-1.52-.35-2.63.65-2s1.52,5,1.52,5c.93-6.29-.45-7.22.63-6.66,1.49.75,1.5,6.3,1.5,6.47,1.2-3.65.88-5.74,1.71-4.91s-.42,7.55-.92,10c-.11.55-.19.89-.19.89C182.47,173.57,182.51,175.09,182.51,175.09Z" transform="translate(-14 -92.63)"/><path class="cls-2" d="M178.67,174.63c-.11.55-.19.89-.19.89a3.69,3.69,0,0,0-3.18,1.81A3.27,3.27,0,0,1,178.67,174.63Z" transform="translate(-14 -92.63)"/><path class="cls-2" d="M173.88,171.76c0-.53.25-3.59-.28-4.51,0-.21,0-.41,0-.61C174.73,166.89,174,171.12,173.88,171.76Z" transform="translate(-14 -92.63)"/><path class="cls-20" d="M177,198.25s3.39-9.21,4.48-11.27,6.71-1.7,11-.91,5.13,6.5,5.13,6.5S184.62,186.45,177,198.25Z" transform="translate(-14 -92.63)"/><path class="cls-2" d="M198.88,180.12a37.12,37.12,0,0,0-4,15.85s-6.61,4.5-9-1.13a42.63,42.63,0,0,0,1.3-17.33C186.38,170.84,198.88,180.12,198.88,180.12Z" transform="translate(-14 -92.63)"/><path class="cls-3" d="M185.89,169.69s-1.21-4.31-3.36-1.29c-2.49,3.51.05,6.93,1.38,6.11S185.89,169.69,185.89,169.69Z" transform="translate(-14 -92.63)"/><path class="cls-3" d="M205.12,180.77s4.31-1.2,2.84,2.21c-1.71,4-6,3.55-5.94,2S205.12,180.77,205.12,180.77Z" transform="translate(-14 -92.63)"/><path class="cls-3" d="M187.66,188.48c-6.13-3.45-7.33-9.4-.57-21.4,3.48-6.19,8.77-8.21,15.63-4.35s7.62,9.29,4.13,15.48C199.59,191.11,194,192.05,187.66,188.48Z" transform="translate(-14 -92.63)"/><path class="cls-6" d="M202.41,181.35a1.66,1.66,0,1,1-1.1-1.77A1.48,1.48,0,0,1,202.41,181.35Z" transform="translate(-14 -92.63)"/><path class="cls-6" d="M189.62,174.59a1.67,1.67,0,1,1-.65-2A1.49,1.49,0,0,1,189.62,174.59Z" transform="translate(-14 -92.63)"/><path class="cls-7" d="M203.29,173.59a.35.35,0,0,1-.34-.27,4.06,4.06,0,0,0-1.88-2.18.35.35,0,0,1-.15-.47.36.36,0,0,1,.48-.15,4.7,4.7,0,0,1,2.23,2.63.36.36,0,0,1-.26.43Z" transform="translate(-14 -92.63)"/><path class="cls-7" d="M194.87,167.6a.31.31,0,0,1-.18,0,4,4,0,0,0-2.83-.47.35.35,0,0,1-.44-.24.33.33,0,0,1,.23-.43,4.69,4.69,0,0,1,3.41.54.36.36,0,0,1,.12.48A.37.37,0,0,1,194.87,167.6Z" transform="translate(-14 -92.63)"/><path class="cls-7" d="M200.76,176.5c-.43.76-1.12,1.18-1.54.94s-.42-1,0-1.81,1.11-1.18,1.54-.94S201.19,175.74,200.76,176.5Z" transform="translate(-14 -92.63)"/><path class="cls-7" d="M192.17,171.89c-.43.76-1.12,1.18-1.54,1s-.42-1.05,0-1.81,1.11-1.19,1.54-.95S192.6,171.13,192.17,171.89Z" transform="translate(-14 -92.63)"/><path class="cls-7" d="M189.19,179.7s3.52,2.68,6.06,2.76c0,0-2.71,2.2-4.65.78A3.51,3.51,0,0,1,189.19,179.7Z" transform="translate(-14 -92.63)"/><path class="cls-7" d="M198.91,175s1.61-1.56,2.27-1,.32,2.47.32,2.47l1.41,0-1.17-.47s.38-2-.35-2.4C200.36,173,198.91,175,198.91,175Z" transform="translate(-14 -92.63)"/><path class="cls-7" d="M192.83,171.84s.5-2.19-.31-2.47-2.28,1-2.28,1l-.76-1.19,1,.76s1.51-1.36,2.24-.95C193.77,169.58,192.83,171.84,192.83,171.84Z" transform="translate(-14 -92.63)"/><path class="cls-13" d="M204.35,165.3a3.5,3.5,0,0,0-5.22-.63c-3,2.42-9.87,6.3-13.24,5s7.36-15.62,16.67-11.42,8.47,17.86,4.6,22.2-2,.3-2,.3a49,49,0,0,1,1.55-10.25A3.87,3.87,0,0,0,204.35,165.3Z" transform="translate(-14 -92.63)"/><path class="cls-6" d="M194,178.3a2,2,0,0,1-.53-.07l.19-.73a.88.88,0,0,0,1.08-.36.94.94,0,0,0,0-1c-.09-.1-.26-.09-.49,0l-.35-.68a1.09,1.09,0,0,1,1.39.12,1.66,1.66,0,0,1,.09,1.9A1.53,1.53,0,0,1,194,178.3Z" transform="translate(-14 -92.63)"/><path class="cls-20" d="M238.9,231.07c-.36,5.39-13.69,22.92-15.91,23.54a6.11,6.11,0,0,0-1.72.85l-.69.52a17.84,17.84,0,0,0-2.22,2.2c-3.88-.25-14.8-5.3-11.29-6.41a2.66,2.66,0,0,0,.7-.37,3.42,3.42,0,0,0,.46-.36c4.13-3.46,12.17-17.52,12.22-18.58s1.43-1.39,1.43-1.39-7.58-11.14-12-12.48-6.61-6.66-6.61-6.66c-4.35-18.37,8.28-15.49,8.28-15.49C220.87,202,239.27,225.67,238.9,231.07Z" transform="translate(-14 -92.63)"/><path class="cls-21" d="M221.27,255.46l-.69.52a27.86,27.86,0,0,1-12.81-4.58,3.42,3.42,0,0,0,.46-.36A26.93,26.93,0,0,0,221.27,255.46Z" transform="translate(-14 -92.63)"/><path class="cls-21" d="M165.9,192.3a4.65,4.65,0,0,1-.34.56,15.5,15.5,0,0,1-2.44-.3,18.33,18.33,0,0,1-9-4.93q-.69-.67-1.2-1.26l.49-.29c.29.32.62.68,1,1a17.71,17.71,0,0,0,9.09,4.94A13.78,13.78,0,0,0,165.9,192.3Z" transform="translate(-14 -92.63)"/><path class="cls-21" d="M225.48,271.43a15.62,15.62,0,0,1-11.14,7.8c-.1-.15-.21-.33-.31-.51a15.21,15.21,0,0,0,11.18-7.94C225.3,271,225.39,271.23,225.48,271.43Z" transform="translate(-14 -92.63)"/><path class="cls-5" d="M124.44,372.45a19.77,19.77,0,0,0-2.84,3.88c-1.44,2.5.15,4.81-6.83,10.63,0,0-14.09-8.25-20.46-18.85a4.12,4.12,0,0,1,3.19-3.74c1.66-.38,6.21,1.75,10.58,2.57.62.11,1.25.21,1.86.26a10.47,10.47,0,0,0,2.24,0,6.62,6.62,0,0,0,1.89-.46h0a5.62,5.62,0,0,0,3.27-3.94s3.74,2.13,1.25,5.74C118.6,368.53,123,366.59,124.44,372.45Z" transform="translate(-14 -92.63)"/><path class="cls-16" d="M114.77,387s-14.09-8.25-20.46-18.85c0,0,2.37-.5,4.32,3S115.91,382.62,114.77,387Z" transform="translate(-14 -92.63)"/><path class="cls-16" d="M114.82,370.29c-1.14,1.81-1.12-1.54-2.64-3.1a6.62,6.62,0,0,0,1.89-.46h0C114.75,367.47,115.72,368.88,114.82,370.29Z" transform="translate(-14 -92.63)"/><path class="cls-16" d="M110.39,370.39c-1.21,1.14-1.6-1.85-2.31-3.45.62.11,1.25.21,1.86.26C110.65,368.16,111.31,369.51,110.39,370.39Z" transform="translate(-14 -92.63)"/><path class="cls-5" d="M211.11,409.06H191.18a11.76,11.76,0,0,1,0-5.83c.36-1.32,2.42-2.56,4.35-4.28a15.81,15.81,0,0,0,1.52-1.54,9.46,9.46,0,0,0,1-1.46,7.52,7.52,0,0,0,.82-2.07,9.11,9.11,0,0,0-.67-5.42s6.79-1.42,9.21,2.28c0,0,.23-1.71,2.38-.57a31.77,31.77,0,0,0,.11,6.31C210.34,399.34,213,400.17,211.11,409.06Z" transform="translate(-14 -92.63)"/><path class="cls-16" d="M205.93,397.05a.89.89,0,0,1-.67.3.94.94,0,0,1-.59-.2,7.29,7.29,0,0,0-6.61-1.2,7.52,7.52,0,0,0,.82-2.07c1.33-.49,3.84-.78,6.94,1.86A.92.92,0,0,1,205.93,397.05Z" transform="translate(-14 -92.63)"/><path class="cls-16" d="M204.25,400.36l-.11.17a.91.91,0,0,1-1.22.3c-1.35-.8-4.4-2.31-7.39-1.88a15.81,15.81,0,0,0,1.52-1.54,7.91,7.91,0,0,1,7,1.74A.92.92,0,0,1,204.25,400.36Z" transform="translate(-14 -92.63)"/></svg>