<svg id="OBJECTS" xmlns="http://www.w3.org/2000/svg" xmlns:xlink="http://www.w3.org/1999/xlink" viewBox="0 0 561.86 391.48"><defs><style>.cls-1{fill:none;}.cls-2{clip-path:url(#clip-path);}.cls-3{fill:#e49371;}.cls-4{fill:#fff;}.cls-5{fill:#41bb9f;}.cls-6{fill:#fcca9f;}.cls-7{fill:#f16345;}.cls-8{fill:#724948;}.cls-9{fill:#80cdcb;}.cls-10{fill:#f37e64;}.cls-11{fill:#fab983;}.cls-12{fill:#d77e5c;}.cls-13{fill:#ffe7ca;}.cls-14{fill:#f8ab86;}.cls-15{fill:#f69b7e;}.cls-16{fill:#44bda9;}.cls-17{fill:#9cd9e4;}</style><clipPath id="clip-path" transform="translate(25.72 -125.21)"><rect class="cls-1" width="500" height="500"/></clipPath></defs><title>hand</title><g class="cls-2"><path class="cls-3" d="M162,246.68c10.66,8.29,19.76,12.09,26.29,11a10.82,10.82,0,0,0,7.51-5c5-7.8-6-26.46-13.3-34.27-7.59-8.1-8.19-13.76-8.21-14,0-.05,0-.09,0-.15-5.63-2.19-11.43-7.21-13-13.1a11.1,11.1,0,0,1,.1-6.35c-4.15-.65-23.43-2.91-28.85,10.46C126.44,210.12,143.53,232.34,162,246.68Zm4.7-6.6c1.77-4.27,5.69-8.77,9.41-8.63,5.46.26,13.09,7.9,15.59,10.41l.18.18c1.09,1.09.21,3.33-4.28,10.9-.62,1-1.25,2.11-1.36,2.38a1.34,1.34,0,0,1-1.38.79c-2.86,0-15-5.46-18-8.46C165.35,246.17,165.29,243.41,166.67,240.08Zm-23-45.16a19,19,0,0,0-6.42,9.62,1,1,0,0,1-1,.73,1.26,1.26,0,0,1-.27,0,1,1,0,0,1-.69-1.24,21,21,0,0,1,7.1-10.64,1,1,0,0,1,1.24,1.57Z" transform="translate(25.72 -125.21)"/><path class="cls-3" d="M175,340c3-4,3.29-9.7,2.25-13.3,0-.06,0-.11,0-.16-6.07-1.71-13.71-5.12-21.71-8.69C146.94,314,138,310,129.79,307.5a52.27,52.27,0,0,1-12-5c-1.37,2.44-7.28,14.28,1.6,23.16,9.89,9.89,37.85,18.07,47.94,18.07A9.18,9.18,0,0,0,175,340Zm-23.87-2c-1.48-1.82-1.53-4.53-.15-7.43s4.62-6.28,7.44-6.12c3.64.24,10.36,1.69,13.91,4.15,2.13,1.47.26,5.74-2,10.36-.27.55-.49,1-.62,1.28s-.7,1.63-5.75,1.63C160.38,341.83,153.64,341,151.15,338Z" transform="translate(25.72 -125.21)"/><path class="cls-4" d="M196.82,293a5.14,5.14,0,0,0,2.31-.28c1.62-1.86,4.36-13.46,3.56-15.13C200,275.91,188.74,271,182.51,271a6.51,6.51,0,0,0-2.62.44,9.1,9.1,0,0,0-4.36,5.37c-1.24,3.37-1.28,7.45-.11,9.92C176.87,289.83,190.2,293,196.82,293Z" transform="translate(25.72 -125.21)"/><path class="cls-4" d="M183.58,318.81a3.9,3.9,0,0,0,1.52-.17c2.51-1.89,5.61-11.3,5.2-13.12a25.21,25.21,0,0,1-5.45-2.07c-3.58-1.61-8-3.61-11.44-3.61h-.34c-2.62.11-4.76,2.83-5.89,5.35-1.49,3.28-1.62,6.82-.33,8.41C169.14,316.43,178.75,318.81,183.58,318.81Z" transform="translate(25.72 -125.21)"/><path class="cls-4" d="M171.21,330.2c-2.9-2-9-3.53-12.9-3.79h-.1c-1.64,0-4.12,2.29-5.4,5-.49,1-1.49,3.61-.11,5.3,1.67,2.06,6.94,3.14,11.27,3.14a9.43,9.43,0,0,0,4-.53l.61-1.27C171.52,332,171.49,330.53,171.21,330.2Z" transform="translate(25.72 -125.21)"/><path class="cls-3" d="M156.37,316c9.64,4.3,18.76,8.37,25,9.41,4.83.8,9.83-2.05,13.05-7.44,2.82-4.72,4.49-12.33-.1-18.27a1,1,0,0,1-.12-1c-11.76-1.6-29.22-8.56-43.69-15.09C140.8,279.24,130.08,273,122.91,265a1,1,0,0,1-.57.37c-.4.08-9.2,2.09-10.13,16-1,14.68,1.06,19.07,18.16,24.3C138.74,308.14,147.7,312.14,156.37,316Zm9-11.64c1.79-4,4.64-6.39,7.63-6.52,3.92-.16,8.8,2,12.69,3.78a23.45,23.45,0,0,0,5.06,1.93,1.63,1.63,0,0,1,1.45,1.3c.88,3-3,13.25-5.9,15.39a4.3,4.3,0,0,1-2.7.56c-4.62,0-15.34-2.31-18.28-5.94C163.22,312.31,163.83,307.75,165.35,304.37Zm-45.57-26.94a23.86,23.86,0,0,0-2.31,12.64,1,1,0,0,1-.9,1.08h-.1a1,1,0,0,1-1-.91,25.81,25.81,0,0,1,2.5-13.7,1,1,0,1,1,1.8.88Z" transform="translate(25.72 -125.21)"/><path class="cls-3" d="M151.34,281.8c27.48,12.41,46,17.53,52.27,14.42,3.23-1.62,5.53-5.72,6.3-11.27.93-6.63-.6-13.68-3.55-16.39-5.52-5.06-15.61-8.88-16.49-9.21-.41.11-.84.21-1.27.28a15.89,15.89,0,0,1-2.62.21c-6.78,0-15.43-4-25.24-11.59-9.28-7.22-18-16.06-23.84-25.07-2.45.43-19.33,4-20.22,20.86C115.74,261.89,135,274.43,151.34,281.8Zm22.31-5.66a11,11,0,0,1,5.41-6.5,8.45,8.45,0,0,1,3.45-.62c7.25,0,19.11,5.48,21.34,6.89a2.25,2.25,0,0,1,.89,1.69c.52,3.64-2.42,14.46-4.15,16.45-.38.42-1.14.91-3.77.91-6,0-21-2.78-23.21-7.35C172.21,284.65,172.22,280,173.65,276.14ZM124.9,239a18.93,18.93,0,0,0-3,11.12,1,1,0,0,1-1,1h0a1,1,0,0,1-1-1,21,21,0,0,1,3.3-12.29A1,1,0,0,1,124.9,239Z" transform="translate(25.72 -125.21)"/><path class="cls-5" d="M381.42,301.08a7,7,0,0,0-7.92,2.48l6,3.74C380.13,305.26,380.77,303.19,381.42,301.08Z" transform="translate(25.72 -125.21)"/><path class="cls-4" d="M184.59,254.1c.24-.45.64-1.13,1.26-2.18,1.2-2,4.3-7.24,4.42-8.63h0c-7.93-7.95-12.14-9.73-14.28-9.84h-.11c-2.36,0-5.66,3.32-7.35,7.4-1,2.48-1.13,4.54-.28,5.4C171,249,181.87,253.79,184.59,254.1Z" transform="translate(25.72 -125.21)"/><path class="cls-6" d="M268.11,143.33a44.67,44.67,0,0,1,13.9-5s0-.06,0-.09c-.16-1.05-4.91-8.07-10.52-10.35a6.92,6.92,0,0,0-7.23.71c-7,5.33-23.82,11.51-30.14,13.72,10.4,1,20.55,3.88,24.77,6.76C262.37,146.75,265.55,144.75,268.11,143.33Z" transform="translate(25.72 -125.21)"/><path class="cls-3" d="M163.18,190.58c1.74,6.4,9.41,11.84,15.21,12.7,9.46,1.42,19.17-2.34,31.49-12.2,11.62-9.29,8.29-17.84,8.14-18.2a1,1,0,0,1,1.85-.77,12.61,12.61,0,0,1,.6,6c5.94-5.37,23.17-18.66,36.59-27.77-9-5.3-41.08-10.49-48.75-1-4.05,5-10.37,9.64-17.44,14.37,4.11,1.16,7.35,5.19,9,8.62,2,4.16,2.17,8.07.48,10.48-1.44,2-8.64,11.42-20.28,11.42a23.06,23.06,0,0,1-3.88-.34c-8.85-1.54-10.33-8.66-10.46-12.52C163.13,184.11,162.26,187.21,163.18,190.58Z" transform="translate(25.72 -125.21)"/><path class="cls-4" d="M176.54,191.88c12.71,2.21,20.7-8.16,22.17-10.26,1.25-1.78,1-5-.65-8.46-1.77-3.7-5.27-7.55-9.09-7.8a1.08,1.08,0,0,1-.44-.14l-4.12,2.69c-5.76,3.75-11.71,7.62-16.65,11.58C167.56,181.46,167.21,190.25,176.54,191.88Z" transform="translate(25.72 -125.21)"/><path class="cls-6" d="M86.72,364.6c-.71-1.48-1.28-2.8-1.75-4C55.4,383.47,13.34,414-21.56,431.68l-2.13,83h78.4c4.6-3.36,66.28-48.48,103.1-76.25C119.92,419.93,94.25,380.48,86.72,364.6Z" transform="translate(25.72 -125.21)"/><path class="cls-3" d="M298.62,390.17a63.67,63.67,0,0,1-10.05,1.63c5,2.94,17.95,10.55,35,20.65a77.56,77.56,0,0,0,10.78-10.79c11.2-13.4,27.77-40.2,44.47-92.39-8.29-5.16-14.49-9.09-17.86-11.24a36.41,36.41,0,0,1,1.64,4.52,1,1,0,0,1-.69,1.23.84.84,0,0,1-.27,0,1,1,0,0,1-1-.72,39.56,39.56,0,0,0-9.91-16.45q-1.19,2.07-2.4,4.23c-4.71,8.32-10.05,17.75-14.92,25.86-6.22,10.38-44.12,33.57-66.77,47.42l-5.79,3.56c-5.35,3.28-9.94,5.94-14,8.28-4.43,2.57-8.12,4.71-11.35,6.82,7.59,2.31,39.48,11.18,62.55,5.42a1,1,0,1,1,.48,1.93Z" transform="translate(25.72 -125.21)"/><path class="cls-7" d="M199.65,420.46c2.86-4.73.2-9.32-.67-10.6a99.07,99.07,0,0,0-11.6,7.95A44.65,44.65,0,0,0,199.65,420.46Z" transform="translate(25.72 -125.21)"/><path class="cls-5" d="M313.23,418.46a28.15,28.15,0,0,0,8.67-4.7l-11-6.48C310.49,408.48,308.71,414.26,313.23,418.46Z" transform="translate(25.72 -125.21)"/><path class="cls-6" d="M259.88,366l5.8-3.55c21-12.86,60.12-36.79,66.1-46.75,4.85-8.09,10.18-17.5,14.89-25.81,1.81-3.21,3.57-6.3,5.2-9.17,9-15.8,12.52-26.53,10.37-31.9-2.58-6.46-12.4-11.09-13.91-11.77-8.77,11.41-21.67,24.72-22.42,25.5a1,1,0,0,1-1.44-1.39c.26-.27,26-26.77,29.57-36.88,1.77-5-1.27-10-3.23-12.54-4.27-5.55-10.92-9.46-15.62-9.22-10.9,10.82-26.36,21.53-27.31,22.18a1,1,0,0,1-.56.17,1,1,0,0,1-.83-.43,1,1,0,0,1,.26-1.39c.33-.23,33.26-23,36.84-35.2,1.76-6-.56-11.51-2.82-15.1-3.82-6.06-9.42-9.9-12.76-10.44-10.37-1.71-32.78,18.64-41.22,26.29-1.07,1-2,1.77-2.6,2.34a1,1,0,0,1-1.32-1.51c.64-.56,1.51-1.35,2.58-2.31,5.93-5.38,16.84-15.27,26.95-21.45a.27.27,0,0,1,0-.09c0-.12,3.33-12.21-5.73-19.88s-24.29-8-37.59-.63c-12.85,7.14-43.07,30.21-48.43,35.57a1,1,0,0,1-.71.3l-.08,0c-1.06,3.43-3.5,7.54-8.73,11.71-11,8.83-20.12,12.94-28.86,12.94a27.92,27.92,0,0,1-4.18-.32,15.49,15.49,0,0,1-1.69-.36c.41,1.67,2,6.16,7.53,12.1,7.45,7.94,19.48,27.5,13.52,36.72a13.26,13.26,0,0,1-4.85,4.56c3.52,1.45,10.61,4.68,15.11,8.8,3.45,3.17,5.21,10.8,4.18,18.15-.87,6.2-3.56,10.86-7.39,12.78a13,13,0,0,1-5.73,1.06c-.8,0-1.65-.05-2.54-.12,4,5.52,4,13.32-.08,20.05-3.24,5.41-8.14,8.55-13.14,8.55a11.78,11.78,0,0,1-2-.16c-.52-.09-1.06-.2-1.62-.32a18.24,18.24,0,0,1-2.81,14.12,11.25,11.25,0,0,1-9.31,4.58c-9.06,0-32.45-6.32-45-15.13,0,0-.06.09-.1.12s-4.06,3.43-10.63,8.79c28.28,52.65,56.9,71.06,73.69,77.48,6.16-5.17,13-9.14,19.18-12.65,7.13-4.08,13.85-7.94,18-12.84,6-7.15,13-11.17,23.54-17.27C250,371.94,254.56,369.29,259.88,366Zm42.48-83.9a28.13,28.13,0,0,1,10-9.59,1,1,0,1,1,1,1.74,26,26,0,0,0-9.27,8.9,1,1,0,0,1-.85.47.9.9,0,0,1-.52-.15A1,1,0,0,1,302.36,282.11ZM282.88,239.9a27.14,27.14,0,0,1,8.66-5.77,1,1,0,0,1,.77,1.85,25,25,0,0,0-8,5.34,1,1,0,0,1-1.42,0A1,1,0,0,1,282.88,239.9Zm-32.06-24.26a37.55,37.55,0,0,1,10.93-11.45,1,1,0,1,1,1.12,1.66,35.77,35.77,0,0,0-10.35,10.83,1,1,0,0,1-.85.48.9.9,0,0,1-.52-.15A1,1,0,0,1,250.82,215.64Z" transform="translate(25.72 -125.21)"/><path class="cls-7" d="M110.56,337.76c3.16-2.57,5.67-4.65,7.42-6.1-2.13-1.28-7.62-3.56-11.26-1.4Q108.64,334.12,110.56,337.76Z" transform="translate(25.72 -125.21)"/><path class="cls-3" d="M411.27,330.15c-3.32,19.33-19.85,71.5-57.61,100.09,47,27.89,105.11,62.69,127.26,77.29h50.8l2.41-111.08c-39.2-18.24-86.87-45.69-122.7-67.25C411.38,329.51,411.32,329.82,411.27,330.15Z" transform="translate(25.72 -125.21)"/><path class="cls-8" d="M251.15,217a.9.9,0,0,0,.52.15,1,1,0,0,0,.85-.48,35.77,35.77,0,0,1,10.35-10.83,1,1,0,1,0-1.12-1.66,37.55,37.55,0,0,0-10.93,11.45A1,1,0,0,0,251.15,217Z" transform="translate(25.72 -125.21)"/><path class="cls-8" d="M283.58,241.61a1,1,0,0,0,.71-.29,25,25,0,0,1,8-5.34,1,1,0,0,0-.77-1.85,27.14,27.14,0,0,0-8.66,5.77,1,1,0,0,0,0,1.42A1,1,0,0,0,283.58,241.61Z" transform="translate(25.72 -125.21)"/><path class="cls-8" d="M302.69,283.48a.9.9,0,0,0,.52.15,1,1,0,0,0,.85-.47,26,26,0,0,1,9.27-8.9,1,1,0,1,0-1-1.74,28.13,28.13,0,0,0-10,9.59A1,1,0,0,0,302.69,283.48Z" transform="translate(25.72 -125.21)"/><path class="cls-8" d="M196.82,295c2.63,0,3.39-.49,3.77-.91,1.73-2,4.67-12.81,4.15-16.45a2.25,2.25,0,0,0-.89-1.69c-2.23-1.41-14.09-6.89-21.34-6.89a8.45,8.45,0,0,0-3.45.62,11,11,0,0,0-5.41,6.5c-1.43,3.9-1.44,8.51,0,11.47C175.77,292.18,190.8,295,196.82,295Zm-21.29-18.13a9.1,9.1,0,0,1,4.36-5.37,6.51,6.51,0,0,1,2.62-.44c6.23,0,17.53,4.89,20.18,6.53.8,1.67-1.94,13.27-3.56,15.13a5.14,5.14,0,0,1-2.31.28c-6.62,0-19.95-3.13-21.4-6.21C174.25,284.28,174.29,280.2,175.53,276.83Z" transform="translate(25.72 -125.21)"/><path class="cls-8" d="M184.83,256.11a1.34,1.34,0,0,0,1.38-.79c.11-.27.74-1.34,1.36-2.38,4.49-7.57,5.37-9.81,4.28-10.9l-.18-.18c-2.5-2.51-10.13-10.15-15.59-10.41-3.72-.14-7.64,4.36-9.41,8.63-1.38,3.33-1.32,6.09.16,7.57C169.82,250.65,182,256.11,184.83,256.11Zm-16.31-15.27c1.69-4.08,5-7.4,7.35-7.4H176c2.14.11,6.35,1.89,14.28,9.84h0c-.12,1.39-3.22,6.62-4.42,8.63-.62,1.05-1,1.73-1.26,2.18-2.72-.31-13.63-5.14-16.35-7.86C167.39,245.38,167.49,243.32,168.52,240.84Z" transform="translate(25.72 -125.21)"/><path class="cls-8" d="M183.58,320.81a4.3,4.3,0,0,0,2.7-.56c2.86-2.14,6.78-12.35,5.9-15.39a1.63,1.63,0,0,0-1.45-1.3,23.45,23.45,0,0,1-5.06-1.93c-3.89-1.75-8.77-3.94-12.69-3.78-3,.13-5.84,2.56-7.63,6.52-1.52,3.38-2.13,7.94,0,10.5C168.24,318.5,179,320.81,183.58,320.81Zm-16.4-15.61c1.13-2.52,3.27-5.24,5.89-5.35h.34c3.42,0,7.86,2,11.44,3.61a25.21,25.21,0,0,0,5.45,2.07c.41,1.82-2.69,11.23-5.2,13.12a3.9,3.9,0,0,1-1.52.17c-4.83,0-14.44-2.38-16.73-5.2C165.56,312,165.69,308.48,167.18,305.2Z" transform="translate(25.72 -125.21)"/><path class="cls-8" d="M169.72,340.2c.13-.29.35-.73.62-1.28,2.27-4.62,4.14-8.89,2-10.36-3.55-2.46-10.27-3.91-13.91-4.15-2.82-.16-6,3.07-7.44,6.12s-1.33,5.61.15,7.43c2.49,3.06,9.23,3.87,12.82,3.87C169,341.83,169.55,340.6,169.72,340.2Zm-1.79-.9a9.43,9.43,0,0,1-4,.53c-4.33,0-9.6-1.08-11.27-3.14-1.38-1.69-.38-4.27.11-5.3,1.28-2.7,3.76-5,5.4-5h.1c3.95.26,10,1.79,12.9,3.79.28.33.31,1.8-2.67,7.83Z" transform="translate(25.72 -125.21)"/><path class="cls-8" d="M142.4,193.35A21,21,0,0,0,135.3,204a1,1,0,0,0,.69,1.24,1.26,1.26,0,0,0,.27,0,1,1,0,0,0,1-.73,19,19,0,0,1,6.42-9.62,1,1,0,0,0-1.24-1.57Z" transform="translate(25.72 -125.21)"/><path class="cls-8" d="M124.6,237.65a1,1,0,0,0-1.38.3,21,21,0,0,0-3.3,12.29,1,1,0,0,0,1,1h0a1,1,0,0,0,1-1,18.93,18.93,0,0,1,3-11.12A1,1,0,0,0,124.6,237.65Z" transform="translate(25.72 -125.21)"/><path class="cls-8" d="M119.32,276.09a1,1,0,0,0-1.34.46,25.81,25.81,0,0,0-2.5,13.7,1,1,0,0,0,1,.91h.1a1,1,0,0,0,.9-1.08,23.86,23.86,0,0,1,2.31-12.64A1,1,0,0,0,119.32,276.09Z" transform="translate(25.72 -125.21)"/><path class="cls-8" d="M535.56,394.91c-39.49-18.33-87.77-46.15-123.82-67.85.57-4.36.44-7-.39-8-3.86-4.4-27.18-18.84-28.17-19.45l-.07,0-.06-.05a9,9,0,0,0-11.25,2.95c-7.58-4.77-12.11-7.68-12.52-7.94a40.22,40.22,0,0,0-7.36-9.61,1.05,1.05,0,0,0-.11-.07c.61-1.07,1.22-2.13,1.8-3.16,9.48-16.58,12.91-27.58,10.49-33.63-2.72-6.79-12-11.47-14.53-12.67,3-4,5.39-7.76,6.35-10.45,1.55-4.34.3-9.47-3.53-14.44-4.14-5.4-10.24-9.27-15.32-9.92,4.16-4.36,7.4-8.64,8.44-12.19,2-6.69-.57-12.79-3.05-16.72-3.68-5.85-9.62-10.62-14.13-11.36-3.68-.59-8.49,1.13-13.64,4,.62-3.94,1.13-13.52-6.73-20.17-6.21-5.25-14.9-7.31-24-6.14-.3-2.24-5.37-8.89-10.78-11.56-3.75-1.86-7.27-1.67-10.16.55-8.21,6.27-31.74,14.16-32,14.24a1,1,0,0,0-.66.79c-10-.5-19.54.93-23.63,6-5,6.23-14.39,12.31-23.43,18.19-5.92,3.86-12,7.84-17.13,12a15.34,15.34,0,0,0-4,4.69c-3.29-.6-25.2-4-31.52,11.6-3.21,7.91-.66,17.44,5.12,26.91-4.38,1-20.19,5.72-21.08,22.56-.38,7.38,2.41,13.87,6.95,19.5-1.78.48-10.47,3.54-11.41,17.72-.68,10.13.14,15.91,5.89,20.26-1.31,2.35-8.08,15.76,1.84,25.69a29.88,29.88,0,0,0,2.68,2.33l-1,.88c-2.34-1.64-9.89-5-14.69-1.24l0,0-.06,0,0,0a.27.27,0,0,1-.08.07c-.75.82-18.49,20.11-20.9,25.16-.36.75-.19,2.18.47,4.23-29.67,23-72.17,53.84-107.26,71.54a1,1,0,0,0-.55.87l-2.17,84.63a1,1,0,0,0,.29.72.94.94,0,0,0,.71.3H55a1,1,0,0,0,.59-.19c.88-.64,66.27-48.45,104.23-77.09a98.16,98.16,0,0,0,18.15,6.4,1.58,1.58,0,0,0,.43.05c4.38,0,21.17-20.2,22.67-23.92,3.77-5.67.74-11.33-.41-13.1,1.57-.93,3.15-1.84,4.71-2.73,7.28-4.17,14.15-8.11,18.53-13.28a48.49,48.49,0,0,1,9.53-8.57c2.22.71,25,7.88,47.2,7.88,1.49,0,3,0,4.46-.1a1,1,0,0,0,.19.17c.37.21,9.58,5.62,23.87,14.05v0c0,.08-3.43,8.4,3,14,2.69,3.62,24,17.8,28.87,17.8a2.21,2.21,0,0,0,1.1-.25,102.24,102.24,0,0,0,9.74-6.26C399.2,459.58,458,494.81,480.07,509.36a1,1,0,0,0,.55.17H532.7a1,1,0,0,0,1-1l2.44-112.71A1,1,0,0,0,535.56,394.91ZM341.08,436c-4,0-21.59-11.64-26.29-16,7.52-2.57,38.16-18.88,68.44-118.08,4.76,3,23.41,14.72,26.6,18.36.47.7.59,5.68-2,16.62-7.86,32.85-30,78.5-66.58,99Zm40.34-135c-.65,2.11-1.29,4.18-1.94,6.22l-6-3.74A7,7,0,0,1,381.42,301.08ZM264.24,128.61a6.92,6.92,0,0,1,7.23-.71c5.61,2.28,10.36,9.3,10.52,10.35,0,0,0,.05,0,.09a44.67,44.67,0,0,0-13.9,5c-2.56,1.42-5.74,3.42-9.24,5.76-4.22-2.88-14.37-5.76-24.77-6.76C240.42,140.12,257.27,133.94,264.24,128.61Zm-79.83,39.3,4.12-2.69a1.08,1.08,0,0,0,.44.14c3.82.25,7.32,4.1,9.09,7.8,1.65,3.44,1.9,6.68.65,8.46-1.47,2.1-9.46,12.47-22.17,10.26-9.33-1.63-9-10.42-8.78-12.39C172.7,175.53,178.65,171.66,184.41,167.91Zm-18.68,13.42c.13,3.86,1.61,11,10.46,12.52a23.06,23.06,0,0,0,3.88.34c11.64,0,18.84-9.37,20.28-11.42,1.69-2.41,1.5-6.32-.48-10.48-1.65-3.43-4.89-7.46-9-8.62,7.07-4.73,13.39-9.38,17.44-14.37,7.67-9.48,39.73-4.29,48.75,1-13.42,9.11-30.65,22.4-36.59,27.77a12.61,12.61,0,0,0-.6-6,1,1,0,0,0-1.85.77c.15.36,3.48,8.91-8.14,18.2-12.32,9.86-22,13.62-31.49,12.2-5.8-.86-13.47-6.3-15.21-12.7C162.26,187.21,163.13,184.11,165.73,181.33ZM132.5,195.22c5.42-13.37,24.7-11.11,28.85-10.46a11.1,11.1,0,0,0-.1,6.35c1.6,5.89,7.4,10.91,13,13.1,0,.06,0,.1,0,.15,0,.24.62,5.9,8.21,14,7.33,7.81,18.35,26.47,13.3,34.27a10.82,10.82,0,0,1-7.51,5c-6.53,1.11-15.63-2.69-26.29-11C143.53,232.34,126.44,210.12,132.5,195.22ZM116.68,244c.89-16.87,17.77-20.43,20.22-20.86,5.88,9,14.56,17.85,23.84,25.07,9.81,7.63,18.46,11.6,25.24,11.59a15.89,15.89,0,0,0,2.62-.21c.43-.07.86-.17,1.27-.28.88.33,11,4.15,16.49,9.21,2.95,2.71,4.48,9.76,3.55,16.39-.77,5.55-3.07,9.65-6.3,11.27-6.23,3.11-24.79-2-52.27-14.42C135,274.43,115.74,261.89,116.68,244Zm-4.47,37.25c.93-13.87,9.73-15.88,10.13-16a1,1,0,0,0,.57-.37c7.17,8.08,17.89,14.28,27.61,18.67,14.47,6.53,31.93,13.49,43.69,15.09a1,1,0,0,0,.12,1c4.59,5.94,2.92,13.55.1,18.27-3.22,5.39-8.22,8.24-13.05,7.44-6.25-1-15.37-5.11-25-9.41-8.67-3.87-17.63-7.87-26-10.42C113.27,300.36,111.23,296,112.21,281.29Zm5.56,21.25a52.27,52.27,0,0,0,12,5C138,310,146.94,314,155.55,317.83c8,3.57,15.64,7,21.71,8.69,0,.05,0,.1,0,.16,1,3.6.77,9.3-2.25,13.3a9.18,9.18,0,0,1-7.71,3.79c-10.09,0-38.05-8.18-47.94-18.07C110.49,316.82,116.4,305,117.77,302.54Zm.21,29.12c-1.75,1.45-4.26,3.53-7.42,6.1q-1.92-3.64-3.84-7.5C110.36,328.1,115.85,330.38,118,331.66ZM92.33,371c-5.62-9.89-7-15-6.73-15.74,2-4.13,15.76-19.39,19.58-23.59,41.13,82.19,84.82,90,93.46,90.73-3.31,5.49-17.56,21.41-20.19,21.46C129,431.83,98,381.06,92.33,371ZM54.71,514.69h-78.4l2.13-83C13.34,414,55.4,383.47,85,360.61c.47,1.19,1,2.51,1.75,4,7.53,15.88,33.2,55.33,71.09,73.84C121,466.21,59.31,511.33,54.71,514.69Zm144.94-94.23a44.65,44.65,0,0,1-12.27-2.65,99.07,99.07,0,0,1,11.6-7.95C199.85,411.14,202.51,415.73,199.65,420.46Zm22.75-28.92c-4.15,4.9-10.87,8.76-18,12.84-6.14,3.51-13,7.48-19.18,12.65-16.79-6.42-45.41-24.83-73.69-77.48,6.57-5.36,10.46-8.64,10.63-8.79s.06-.08.1-.12c12.6,8.81,36,15.13,45.05,15.13a11.25,11.25,0,0,0,9.31-4.58,18.24,18.24,0,0,0,2.81-14.12c.56.12,1.1.23,1.62.32a11.78,11.78,0,0,0,2,.16c5,0,9.9-3.14,13.14-8.55,4-6.73,4-14.53.08-20.05.89.07,1.74.12,2.54.12A13,13,0,0,0,204.5,298c3.83-1.92,6.52-6.58,7.39-12.78,1-7.35-.73-15-4.18-18.15-4.5-4.12-11.59-7.35-15.11-8.8a13.26,13.26,0,0,0,4.85-4.56c6-9.22-6.07-28.78-13.52-36.72-5.56-5.94-7.12-10.43-7.53-12.1a15.49,15.49,0,0,0,1.69.36,27.92,27.92,0,0,0,4.18.32c8.74,0,17.83-4.11,28.86-12.94,5.23-4.17,7.67-8.28,8.73-11.71l.08,0a1,1,0,0,0,.71-.3c5.36-5.36,35.58-28.43,48.43-35.57,13.3-7.39,28.41-7.14,37.59.63s5.77,19.76,5.73,19.88a.27.27,0,0,0,0,.09c-10.11,6.18-21,16.07-26.95,21.45-1.07,1-1.94,1.75-2.58,2.31a1,1,0,0,0,1.32,1.51c.64-.57,1.53-1.36,2.6-2.34,8.44-7.65,30.85-28,41.22-26.29,3.34.54,8.94,4.38,12.76,10.44,2.26,3.59,4.58,9.12,2.82,15.1-3.58,12.17-36.51,35-36.84,35.2a1,1,0,0,0-.26,1.39,1,1,0,0,0,.83.43,1,1,0,0,0,.56-.17c.95-.65,16.41-11.36,27.31-22.18,4.7-.24,11.35,3.67,15.62,9.22,2,2.55,5,7.58,3.23,12.54-3.61,10.11-29.31,36.61-29.57,36.88a1,1,0,0,0,1.44,1.39c.75-.78,13.65-14.09,22.42-25.5,1.51.68,11.33,5.31,13.91,11.77,2.15,5.37-1.34,16.1-10.37,31.9-1.63,2.87-3.39,6-5.2,9.17-4.71,8.31-10,17.72-14.89,25.81-6,10-45.09,33.89-66.1,46.75l-5.8,3.55c-5.32,3.28-9.9,5.93-13.94,8.26C235.41,380.37,228.45,384.39,222.4,391.54Zm77-2.58a1,1,0,0,0-1.21-.72c-23.07,5.76-55-3.11-62.55-5.42,3.23-2.11,6.92-4.25,11.35-6.82,4.05-2.34,8.64-5,14-8.28l5.79-3.56c22.65-13.85,60.55-37,66.77-47.42,4.87-8.11,10.21-17.54,14.92-25.86q1.21-2.16,2.4-4.23a39.56,39.56,0,0,1,9.91,16.45,1,1,0,0,0,1,.72.84.84,0,0,0,.27,0,1,1,0,0,0,.69-1.23A36.41,36.41,0,0,0,361,298c3.37,2.15,9.57,6.08,17.86,11.24-16.7,52.19-33.27,79-44.47,92.39a77.56,77.56,0,0,1-10.78,10.79c-17.09-10.1-30.05-17.71-35-20.65a63.67,63.67,0,0,0,10.05-1.63A1,1,0,0,0,299.35,389Zm11.58,18.32,11,6.48a28.15,28.15,0,0,1-8.67,4.7C308.71,414.26,310.49,408.48,310.93,407.28ZM531.72,507.53h-50.8c-22.15-14.6-80.26-49.4-127.26-77.29,37.76-28.59,54.29-80.76,57.61-100.09.05-.33.11-.64.16-.95,35.83,21.56,83.5,49,122.7,67.25Z" transform="translate(25.72 -125.21)"/><path class="cls-9" d="M407.81,337c2.61-10.94,2.49-15.92,2-16.62C406.64,316.73,388,305,383.23,302c-30.28,99.2-60.92,115.51-68.44,118.08,4.7,4.31,22.32,16,26.29,16h.15C377.8,415.49,400,369.84,407.81,337Z" transform="translate(25.72 -125.21)"/><path class="cls-10" d="M178.45,443.86c2.63-.05,16.88-16,20.19-21.46-8.64-.73-52.33-8.54-93.46-90.73-3.82,4.2-17.61,19.46-19.58,23.59-.24.78,1.11,5.85,6.73,15.74C98,381.06,129,431.83,178.45,443.86Z" transform="translate(25.72 -125.21)"/><path class="cls-11" d="M157.81,438.44C144.66,432,133,423.07,123,413.46A1082.45,1082.45,0,0,1-11,504.63c-4.12,2.38-8.29,4.74-12.58,6.81l-.08,3.25h78.4C59.31,511.33,121,466.21,157.81,438.44Z" transform="translate(25.72 -125.21)"/><path class="cls-11" d="M362.82,253.27c-3,5.53-6,11.12-9.3,16.48-19.77,32-51.47,55-84.94,72.11s-69.27,29.27-103.52,44.81c-4.83,2.2-9.66,4.5-14.26,7.14C164.35,407,176.41,413.66,185.22,417c6.16-5.17,13-9.14,19.18-12.65,7.13-4.08,13.85-7.94,18-12.84,6-7.15,13-11.17,23.54-17.27,4-2.33,8.62-5,13.94-8.26l5.8-3.55c21-12.86,60.12-36.79,66.1-46.75,4.85-8.09,10.18-17.5,14.89-25.81,1.81-3.21,3.57-6.3,5.2-9.17C358.87,268.48,362.53,259.29,362.82,253.27Z" transform="translate(25.72 -125.21)"/><path class="cls-11" d="M348.21,208.85c-5.63,18.68-18.91,34.62-33.11,48.32-8.2,7.91-17.58,17.15-16.59,28.5,1.28-1.12,2.53-2.27,3.8-3.41a.88.88,0,0,1,.05-.15,28.13,28.13,0,0,1,10-9.59,1,1,0,0,1,.71-.1q5.65-5.31,11.18-10.74a.9.9,0,0,1,.24-.51c.26-.27,26-26.77,29.57-36.88,1.77-5-1.27-10-3.23-12.54A26.51,26.51,0,0,0,348.21,208.85Z" transform="translate(25.72 -125.21)"/><path class="cls-11" d="M289.68,235c5.61-3.54,11.19-7.17,16.66-10.93a1,1,0,0,1,.41-1c.33-.23,33.26-23,36.84-35.2,1.76-6-.56-11.51-2.82-15.1a29.28,29.28,0,0,0-5.5-6.42c.26,15.58-10.1,30.6-22,41.43-13.67,12.48-30.14,22.36-40.55,37.66,4.27-2.59,8.57-5.21,12.85-7.88A27.11,27.11,0,0,1,289.68,235Z" transform="translate(25.72 -125.21)"/><path class="cls-11" d="M254.47,213.85l28.12-23.33a1,1,0,0,1,.28-1.08c.64-.56,1.51-1.35,2.58-2.31,5.93-5.38,16.84-15.27,26.95-21.45a.27.27,0,0,1,0-.09c0-.12,3.18-11.68-5.15-19.36a74.93,74.93,0,0,1-21.53,29.9c-7.25,6.05-15.63,10.69-22.7,17S250.07,208,250.18,217.4l.73-.6a1,1,0,0,1-.09-1.16,37.55,37.55,0,0,1,10.93-11.45,1,1,0,1,1,1.12,1.66A35.46,35.46,0,0,0,254.47,213.85Z" transform="translate(25.72 -125.21)"/><path class="cls-11" d="M258.87,149.09c3.5-2.34,6.68-4.34,9.24-5.76a44.67,44.67,0,0,1,13.9-5s0-.06,0-.09c-.12-.77-2.72-4.76-6.31-7.73A108.53,108.53,0,0,1,248.9,145,36.29,36.29,0,0,1,258.87,149.09Z" transform="translate(25.72 -125.21)"/><path class="cls-11" d="M43.1,458.34c-10.34,4-19.29,11.58-28.64,17.49C4.06,482.41-7,488.08-17.07,495.21c-1.32.94-.56,3.42,1.18,2.8,11.15-3.95,21.52-10.29,31.57-16.42,9.85-6,21.32-12.07,28.67-21.11C45.06,459.6,44.43,457.82,43.1,458.34Z" transform="translate(25.72 -125.21)"/><path class="cls-11" d="M65.59,445.41c-2.54,0-4.53,1.5-6.64,2.77a41.68,41.68,0,0,0-6.44,4.57.88.88,0,0,0,.85,1.46A41,41,0,0,0,60.6,451c2.18-1.15,4.46-2.08,5.76-4.26A.9.9,0,0,0,65.59,445.41Z" transform="translate(25.72 -125.21)"/><path class="cls-11" d="M271.87,329.94c-5,1.15-9.31,4-13.82,6.41q-7.4,4-14.91,7.7c-10.46,5.19-21.17,9.83-32.06,14-1.9.74-1.1,3.83.86,3.11q16-5.9,31.46-13c5.08-2.33,10.13-4.79,15.08-7.39s10.42-5,14.32-9.26A1,1,0,0,0,271.87,329.94Z" transform="translate(25.72 -125.21)"/><path class="cls-11" d="M289.48,320.19c-3.9,1.33-7,3.93-10.34,6.32-1,.76-.13,2.41,1,1.76,3.54-2,7.23-3.81,10.05-6.8C290.72,320.94,290.24,319.93,289.48,320.19Z" transform="translate(25.72 -125.21)"/><path class="cls-11" d="M294.56,290.41c-2.1,1.57-4.57,2.78-6.46,4.57a.72.72,0,0,0,.31,1.2c3.31.79,6.33-1.81,7.46-4.77A.9.9,0,0,0,294.56,290.41Z" transform="translate(25.72 -125.21)"/><path class="cls-11" d="M269.88,251.13a8.34,8.34,0,0,0-4.35,2.92c-1.25,1.38-2.31,3-1.88,5a1,1,0,0,0,1.52.61,9,9,0,0,0,3.1-2.85,38.49,38.49,0,0,0,3.26-3.51C272.31,252.11,271,250.93,269.88,251.13Z" transform="translate(25.72 -125.21)"/><path class="cls-11" d="M244.8,221.61c-1.37-.23-2.61,1.39-3.68,2.09a14.71,14.71,0,0,1-2.3,1.19,3.19,3.19,0,0,0-2,1.74.92.92,0,0,0,.32,1.24,2.71,2.71,0,0,0,3,.15,12.43,12.43,0,0,0,2.87-1.87,8.85,8.85,0,0,0,2.12-2.6C245.4,223.06,245.68,221.76,244.8,221.61Z" transform="translate(25.72 -125.21)"/><path class="cls-11" d="M287,144a1.07,1.07,0,0,0-.54,2c3,1.79,6.2,3.06,9.09,5.18.66.49,1.28,1,1.93,1.52.33.25.31.8.76,1.06a1.38,1.38,0,0,0,1.78-.23C303.76,149.8,289.74,143.92,287,144Z" transform="translate(25.72 -125.21)"/><path class="cls-11" d="M296.46,154.13a1.93,1.93,0,0,0-.62-.74c-.22-.13-.44-.26-.67-.38l-1.53-.85a1.08,1.08,0,0,0-1.47.38,1.1,1.1,0,0,0,.39,1.48l1.26.92.63.46a2,2,0,0,0,1.1.31A1.06,1.06,0,0,0,296.46,154.13Z" transform="translate(25.72 -125.21)"/><path class="cls-11" d="M323.56,166.57a1,1,0,0,0-.51,1.89c.66.49,1.35.92,2,1.45s1.22,1.41,2.24,1.65a.88.88,0,0,0,1.07-.61C329,168.54,325.58,166.51,323.56,166.57Z" transform="translate(25.72 -125.21)"/><path class="cls-11" d="M342.62,210.76a8.3,8.3,0,0,0-6.21-4,.71.71,0,0,0-.5,1.2c.71.7,1.42,1.38,2.16,2s1.49,1.7,2.27,2.52A1.46,1.46,0,0,0,342.62,210.76Z" transform="translate(25.72 -125.21)"/><path class="cls-11" d="M336.37,210.29l-.34,0a1.38,1.38,0,0,0,0,2.75l.34,0C338.17,213.23,338.17,210.16,336.37,210.29Z" transform="translate(25.72 -125.21)"/><path class="cls-11" d="M360.25,249.63c-.91-1.9-3-3.3-4.6-4.57a22.75,22.75,0,0,0-5.86-3.31c-.93-.36-1.65,1-1,1.65,1.47,1.35,3,2.68,4.48,4s2.93,3.33,4.76,4.4A1.61,1.61,0,0,0,360.25,249.63Z" transform="translate(25.72 -125.21)"/><path class="cls-11" d="M354.51,251.72a6.33,6.33,0,0,0-1.46-1.32l-1.69-1.13a1.65,1.65,0,0,0-2.24.59,1.68,1.68,0,0,0,.59,2.25l1.5,1a7.11,7.11,0,0,0,2,.9,1.36,1.36,0,0,0,1.55-.63A1.39,1.39,0,0,0,354.51,251.72Z" transform="translate(25.72 -125.21)"/><path class="cls-12" d="M531.72,507.53l.63-28.87c-28.27-17.75-58.87-32.05-87.38-49.58-7.47-4.59-14.8-9.42-22.14-14.24l-35.48-23.33c-8.57,14.23-19.66,28.11-33.69,38.73,47,27.89,105.11,62.69,127.26,77.29Z" transform="translate(25.72 -125.21)"/><path class="cls-11" d="M220.51,284.32c0-9.95-4.28-19.47-9.91-27.67a26.27,26.27,0,0,1-3.15-5.35,29.47,29.47,0,0,1-1.18-7,48,48,0,0,0-14.32-29c7.17-5.06,14.25-10.44,19.72-17.29a40.68,40.68,0,0,0,8.3-17.1h0l-.08,0c-1.06,3.43-3.5,7.54-8.73,11.71-11,8.83-20.12,12.94-28.86,12.94a27.92,27.92,0,0,1-4.18-.32,15.49,15.49,0,0,1-1.69-.36c.41,1.67,2,6.16,7.53,12.1,7.45,7.94,19.48,27.5,13.52,36.72a13.26,13.26,0,0,1-4.85,4.56c3.52,1.45,10.61,4.68,15.11,8.8,3.45,3.17,5.21,10.8,4.18,18.15-.87,6.2-3.56,10.86-7.39,12.78a13,13,0,0,1-5.73,1.06c-.8,0-1.65-.05-2.54-.12,4,5.52,4,13.32-.08,20.05-3.24,5.41-8.14,8.55-13.14,8.55a11.78,11.78,0,0,1-2-.16c-.52-.09-1.06-.2-1.62-.32a18.24,18.24,0,0,1-2.81,14.12,11.25,11.25,0,0,1-9.31,4.58c-9.06,0-32.45-6.32-45-15.13,0,0-.06.09-.1.12s-4.06,3.43-10.63,8.79c2.28,4.26,4.57,8.27,6.86,12.09l2.16.11,35.58,1.72a47.52,47.52,0,0,0,11.56-.37c9.86-2,17.35-9.75,24.16-17.15,7.13-7.76,14.72-16.65,14.46-27.19C215.36,304.62,220.49,294.28,220.51,284.32Z" transform="translate(25.72 -125.21)"/><path class="cls-11" d="M179.18,356.11c-6.94,1.81-13.67,3.69-20.89,4-7.48.36-14.84-.6-22.31-.61a.69.69,0,0,0-.18,1.35c13.25,3.43,32.7,5.67,44-3.73C180.29,356.73,179.75,356,179.18,356.11Z" transform="translate(25.72 -125.21)"/><path class="cls-11" d="M193.49,347.11c-1.35.75-2.62,1.69-3.89,2.57-.65.45-1.23,1-1.87,1.5a9.17,9.17,0,0,0-1.72,1.37,1.07,1.07,0,0,0,1,1.78,9.76,9.76,0,0,0,4.33-2.36,11.9,11.9,0,0,0,3-4C194.6,347.43,194.1,346.77,193.49,347.11Z" transform="translate(25.72 -125.21)"/><path class="cls-11" d="M211.94,230.37c-.37-2.07-1.62-3.92-2.25-5.93a23.78,23.78,0,0,1-.93-7.91c0-.95-1.34-.9-1.44,0-.49,4.32-.12,11.46,3.63,14.41A.59.59,0,0,0,211.94,230.37Z" transform="translate(25.72 -125.21)"/><path class="cls-12" d="M336.92,347.54c-3.37-11.28,2.14-23,5.75-34.25a108.07,108.07,0,0,0,4.4-20.05c-4.37,7.72-9.16,16.15-13.58,23.5-6.22,10.38-44.12,33.57-66.77,47.42l-5.79,3.56c-5.35,3.28-9.94,5.94-14,8.28-4.43,2.57-8.12,4.71-11.35,6.82,7.59,2.31,39.48,11.18,62.55,5.42a1,1,0,1,1,.48,1.93,63.67,63.67,0,0,1-10.05,1.63c5,2.94,17.95,10.55,35,20.65a77.56,77.56,0,0,0,10.78-10.79c5.82-7,13.09-17.56,21.07-33.44C347.36,362.83,339.64,356.64,336.92,347.54Z" transform="translate(25.72 -125.21)"/><path class="cls-12" d="M239.14,163.19c-.61,0-1.23,0-1.85,0-6.87-.1-14.23-2-18.56-7.29a53.94,53.94,0,0,1-17.63,25.27,5.68,5.68,0,0,1-.75,1.59c-1.44,2-8.64,11.42-20.28,11.42a23.06,23.06,0,0,1-3.88-.34,14.45,14.45,0,0,1-4.06-1.32,53.44,53.44,0,0,1-8.2,0c2.6,5.51,9.27,9.95,14.46,10.72,9.46,1.42,19.17-2.34,31.49-12.2,11.62-9.29,8.29-17.84,8.14-18.2a1,1,0,0,1,1.85-.77,12.61,12.61,0,0,1,.6,6C223.9,175,231.09,169.24,239.14,163.19Z" transform="translate(25.72 -125.21)"/><path class="cls-12" d="M182.47,218.36c-7.59-8.1-8.19-13.76-8.21-14,0-.05,0-.09,0-.15-5.63-2.19-11.43-7.21-13-13.1a11.1,11.1,0,0,1,.1-6.35c-.91-.14-2.53-.36-4.57-.48-2.9,4.13-3.57,10.15-3.45,15.44a44.21,44.21,0,0,0,1.52,11.86c2.67,8.95,9.48,15.59,16.94,21.52a6.74,6.74,0,0,1,4.29-1.65c5.46.26,13.09,7.9,15.59,10.41l.18.18c1,1,.34,3-3.16,9a8.3,8.3,0,0,1,0,1.22,29.86,29.86,0,0,1-1.54,5.54c.38,0,.76-.08,1.12-.14a10.82,10.82,0,0,0,7.51-5C200.82,244.83,189.8,226.17,182.47,218.36Z" transform="translate(25.72 -125.21)"/><path class="cls-12" d="M189.87,259.35c-.41.11-.84.21-1.27.28a15.89,15.89,0,0,1-2.62.21c-6.78,0-15.43-4-25.24-11.59-9.28-7.22-18-16.06-23.84-25.07-1.56.27-8.93,1.81-14.33,7.22,8.71,12.71,23.53,20.25,37.59,27.07l24,11.65c7.26.7,17.59,5.48,19.65,6.79a2.25,2.25,0,0,1,.89,1.69,8.65,8.65,0,0,1,0,1.49l5.38,2.61c.13-5.56-1.34-10.87-3.81-13.14C200.84,263.5,190.75,259.68,189.87,259.35Z" transform="translate(25.72 -125.21)"/><path class="cls-12" d="M194.21,298.72c-11.76-1.6-29.22-8.56-43.69-15.09C140.8,279.24,130.08,273,122.91,265a1,1,0,0,1-.57.37,11.28,11.28,0,0,0-5.52,3.48,62.91,62.91,0,0,0,32.29,23.75c7.73,2.44,15.86,3.35,23.72,5.31l.15,0c3.92-.16,8.8,2,12.69,3.78a23.45,23.45,0,0,0,5.06,1.93,1.63,1.63,0,0,1,1.45,1.3,6.56,6.56,0,0,1,0,2.52,25.17,25.17,0,0,1,4.42,5.39,14.83,14.83,0,0,0-2.27-13.06A1,1,0,0,1,194.21,298.72Z" transform="translate(25.72 -125.21)"/><path class="cls-12" d="M175,340c3-4,3.29-9.7,2.25-13.3,0-.06,0-.11,0-.16-6.07-1.71-13.71-5.12-21.71-8.69C146.94,314,138,310,129.79,307.5a52.27,52.27,0,0,1-12-5,26.23,26.23,0,0,0-1.93,4.4,267.17,267.17,0,0,0,39.62,18.39,5.25,5.25,0,0,1,3-.92c3.64.24,10.36,1.69,13.91,4.15,1.93,1.33.58,5-1.38,9.06a17.9,17.9,0,0,1,.53,5.27A9.36,9.36,0,0,0,175,340Z" transform="translate(25.72 -125.21)"/><path class="cls-12" d="M216.31,151l-1.52-1.55a1.78,1.78,0,0,0-2.52,2.52l1.4,1.38c.65.63,1.35,1.59,2.36,1.46a1.67,1.67,0,0,0,1.6-1.6C217.75,152.23,216.91,151.59,216.31,151Z" transform="translate(25.72 -125.21)"/><path class="cls-12" d="M221.82,151c-.08-.36-.16-.71-.25-1.06a1,1,0,0,0-1.46-.6,1,1,0,0,0-.21,1.57l.75.77A.7.7,0,0,0,221.82,151Z" transform="translate(25.72 -125.21)"/><path class="cls-12" d="M146.92,194.55a32.12,32.12,0,0,1-1.67,2.76c-.61.88-1.4,1.6-2,2.46s.66,2.13,1.61,1.6a10.75,10.75,0,0,0,4.38-5.86A1.25,1.25,0,0,0,146.92,194.55Z" transform="translate(25.72 -125.21)"/><path class="cls-12" d="M150.56,219.72a11.63,11.63,0,0,0-1.48,1.86,7.14,7.14,0,0,0-1.43,2.31c-.29,1.1,1,2.37,2.07,1.59a7.16,7.16,0,0,0,1.7-2.15,13.13,13.13,0,0,0,1.3-2.35C153.2,219.67,151.45,218.93,150.56,219.72Z" transform="translate(25.72 -125.21)"/><path class="cls-12" d="M153.22,223.77a1.18,1.18,0,0,0-1.58.42l-.53.72a3.47,3.47,0,0,0-.47,1.06c-.24.78.73,1.63,1.45,1.11a3.55,3.55,0,0,0,.93-.84c.2-.3.41-.59.62-.89A1.16,1.16,0,0,0,153.22,223.77Z" transform="translate(25.72 -125.21)"/><path class="cls-12" d="M150,263.82a19.29,19.29,0,0,0-2.15,8.73,1.33,1.33,0,0,0,.66,1.15,1.21,1.21,0,0,0,1.35,0,1.34,1.34,0,0,0,.66-1.15,55.85,55.85,0,0,1,1.1-8.05C151.75,263.55,150.48,262.89,150,263.82Z" transform="translate(25.72 -125.21)"/><path class="cls-12" d="M151.53,269.78l-.66,2.51c-.25.94-.34,2.24.85,2.57s1.77-.84,2.06-1.76.51-1.66.76-2.49C155.14,268.68,152,267.83,151.53,269.78Z" transform="translate(25.72 -125.21)"/><path class="cls-12" d="M141.66,298.69a7.6,7.6,0,0,1-.22,2.13c-.09.35-.24.68-.34,1a.68.68,0,0,0,0-.15,46.57,46.57,0,0,0-.51-6.78c-.19-1.12-1.78-.93-2.08,0a15.38,15.38,0,0,0-.24,7.17c.28,1.42,2.28,1.28,2.73.12a1.55,1.55,0,0,0,.08.79,1,1,0,0,0,1.25.71c1.79-.43,2.06-3.51,2.06-5C144.41,296.92,141.6,296.92,141.66,298.69Z" transform="translate(25.72 -125.21)"/><path class="cls-12" d="M135.14,327.13a28.3,28.3,0,0,0-.88-5.27,1.25,1.25,0,0,0-2.45.33,29.11,29.11,0,0,0,.07,4.94c.1,1.42,0,3.19,1.41,3.94a1,1,0,0,0,1.2-.16C135.66,330,135.27,328.45,135.14,327.13Z" transform="translate(25.72 -125.21)"/><path class="cls-12" d="M137,325.68l-.5,1s0,.07.05,0l.5-1S137,325.64,137,325.68Z" transform="translate(25.72 -125.21)"/><path class="cls-12" d="M348.39,318c.7-1-.45-1.89-1.35-1.76-4.21.6-5.47,12.41-5.89,15.66-.65,5.08-2.65,14.56,2.14,18.09,1,.74,2.42-.48,2.06-1.59-1.55-4.76-1.25-9.76-.8-14.68C345,329.37,345.75,321.65,348.39,318Z" transform="translate(25.72 -125.21)"/><path class="cls-12" d="M349.32,357c-.44-1.55-1.08-3.06-1.63-4.57-.64-1.75-3.43-1-2.84.79.5,1.52.92,3.1,1.53,4.59C347.1,359.53,349.87,358.9,349.32,357Z" transform="translate(25.72 -125.21)"/><path class="cls-12" d="M515.73,456.76c-4.21-3.06-10.25-4.3-15.06-6.28-6.32-2.61-12.51-5.58-18.61-8.66-11-5.56-20.89-12.93-31.73-18.67a.82.82,0,0,0-1,1.28c8.62,8.56,20.21,14.9,30.75,20.77,5.62,3.14,11.41,5.95,17.28,8.58,5.31,2.39,11.6,6,17.44,6.36C516.78,460.25,517.06,457.73,515.73,456.76Z" transform="translate(25.72 -125.21)"/><path class="cls-12" d="M434.51,411.68a16.33,16.33,0,0,0-6.29-3.33c-.59-.14-1.17.65-.64,1.09,1.66,1.41,3.38,2.71,4.92,4.25,1.27,1.28,2.57,3.79,4.4,4.15a1.27,1.27,0,0,0,1.58-1.21C438.5,414.55,436,412.86,434.51,411.68Z" transform="translate(25.72 -125.21)"/><path class="cls-13" d="M66.17,382.89c-3.19,1.06-5.42,3.56-8,5.7-4,3.37-8.17,6.56-12.41,9.66-7.79,5.69-15.92,10.87-24,16.16a1.17,1.17,0,0,0,1.18,2,158.07,158.07,0,0,0,24.86-14.68c3.59-2.53,7.07-5.2,10.52-7.92,3.23-2.55,7.55-5.18,9.34-9C68.16,383.89,67.39,382.49,66.17,382.89Z" transform="translate(25.72 -125.21)"/><path class="cls-13" d="M78.48,375.83a2,2,0,0,0-2.71-.71l-3.65,2a1.84,1.84,0,0,0-.65,2.5,1.87,1.87,0,0,0,2.5.66l3.8-1.76A2,2,0,0,0,78.48,375.83Z" transform="translate(25.72 -125.21)"/><path class="cls-13" d="M257.8,156c-3.88,2.19-7.11,5.77-10.6,8.56-3.86,3.08-7.88,6-11.64,9.17-.65.55.17,1.43.85,1.1A73.69,73.69,0,0,0,249,166.92c3.64-2.72,7.85-5.49,10.51-9.19C260.31,156.65,258.84,155.41,257.8,156Z" transform="translate(25.72 -125.21)"/><path class="cls-13" d="M269.87,148.07a12.7,12.7,0,0,0-2.69,1.63c-1,.73-2.16,1.32-3.19,2.07s-.44,2.57.89,2.11c2.3-.8,4.93-2.63,5.8-5A.67.67,0,0,0,269.87,148.07Z" transform="translate(25.72 -125.21)"/><path class="cls-13" d="M302.31,184.75c-3.62-.52-7.17,3.4-9.81,5.56-3.66,3-7.71,6.37-10,10.54-.27.49.28,1.12.79.79,3.94-2.57,7.26-6.15,11-9,2.64-2,7.41-3.8,8.47-7.1A.65.65,0,0,0,302.31,184.75Z" transform="translate(25.72 -125.21)"/><path class="cls-13" d="M323.37,222.12a13.48,13.48,0,0,0-5.36,2.74c-1.62,1.25-3.55,2.59-4.51,4.44a.46.46,0,0,0,.51.67,20.58,20.58,0,0,0,4.87-2.85,25.59,25.59,0,0,0,5.07-4A.6.6,0,0,0,323.37,222.12Z" transform="translate(25.72 -125.21)"/><path class="cls-14" d="M472.37,369.19c-8.15-4.46-16.49-8.61-24.69-13s-16.8-10.56-25.85-12.71a.41.41,0,0,0-.4.68c6.63,6.48,16.46,10.52,24.48,15,8.32,4.69,16.48,9.44,25.86,11.44C472.61,370.8,473.18,369.63,472.37,369.19Z" transform="translate(25.72 -125.21)"/><path class="cls-14" d="M486.25,378.31c-.89-1.7-3-2.46-4.61-3.26a24,24,0,0,0-5.85-2.24c-.82-.16-1.54.82-.86,1.46a25.82,25.82,0,0,0,5.16,3.42c1.71,1,3.62,2.16,5.65,1.88C486.31,379.49,486.48,378.75,486.25,378.31Z" transform="translate(25.72 -125.21)"/><path class="cls-14" d="M241.47,150a22.62,22.62,0,0,0-7.72-2.16c-.66-.09-4.34-.78-3.84,1.12.47,1.74,2.71,1.81,4.22,2.12a21.36,21.36,0,0,0,6.89.61C241.84,151.6,242.35,150.44,241.47,150Z" transform="translate(25.72 -125.21)"/><path class="cls-14" d="M147.5,225.92c-2.75-5-6.26-9.69-9.16-14.7a1,1,0,0,0-1.77.75c1.84,5.66,5.18,11.39,10.19,14.7C147.23,227,147.76,226.38,147.5,225.92Z" transform="translate(25.72 -125.21)"/><path class="cls-14" d="M153,235.11a8.52,8.52,0,0,0-1.4-2.47,25.65,25.65,0,0,0-2.49-2.51c-.64-.59-1.78.2-1.25,1s1.18,1.66,1.82,2.46a8.44,8.44,0,0,0,2.54,2.15C152.57,235.92,153.16,235.56,153,235.11Z" transform="translate(25.72 -125.21)"/><path class="cls-14" d="M152.25,277.35c-3.67-2.1-7.42-3.9-11.16-5.88-4.22-2.23-7.93-5.18-11.92-7.78-.9-.59-1.8.71-1.11,1.45,6,6.51,15.08,11.71,23.84,13C152.38,278.25,152.72,277.62,152.25,277.35Z" transform="translate(25.72 -125.21)"/><path class="cls-14" d="M162.2,282.74c-1.13-2.08-4.31-2.8-6.42-3.43-1-.29-1.65,1.23-.7,1.65s2.14,1,3.19,1.6a7.13,7.13,0,0,0,3.32,1.24A.71.71,0,0,0,162.2,282.74Z" transform="translate(25.72 -125.21)"/><path class="cls-14" d="M149,307.4c-3.4-2.46-8.29-3-12.28-4.23-4.58-1.4-9.17-3.46-13.92-4.13a.36.36,0,0,0-.28.65c3.43,2.55,7.78,4,11.77,5.47,4.33,1.59,9.65,4.2,14.31,3.7A.79.79,0,0,0,149,307.4Z" transform="translate(25.72 -125.21)"/><path class="cls-14" d="M155.38,311.5a4.65,4.65,0,0,0-3.6-2.21c-1.11-.16-1.62,1.44-.48,1.72.58.13,1.15.45,1.73.53s1.23.43,1.89.56A.41.41,0,0,0,155.38,311.5Z" transform="translate(25.72 -125.21)"/><path class="cls-14" d="M135.59,331.83c-1.26-1.86-3.36-2.5-5.33-3.42s-4.06-2.32-6.18-2a.47.47,0,0,0-.28.69c1,1.8,3.41,2.58,5.2,3.48s3.83,2.32,6.06,2.17C135.49,332.71,135.87,332.23,135.59,331.83Z" transform="translate(25.72 -125.21)"/><path class="cls-13" d="M189,165.36a1.08,1.08,0,0,1-.44-.14l-1.68,1.09c3.84,2.73,7.08,6.85,6.69,11.48-.43,5-4.84,8.63-9.14,11.21-1.88,1.13-3.82,2.16-5.79,3.13,11.51.82,18.72-8.52,20.1-10.51,1.25-1.78,1-5-.65-8.46C196.29,169.46,192.79,165.61,189,165.36Z" transform="translate(25.72 -125.21)"/><path class="cls-13" d="M189.64,245.07a6.48,6.48,0,0,0,.63-1.78h0c-7.93-7.95-12.14-9.73-14.28-9.84h-.11c-2.36,0-5.66,3.32-7.35,7.4a7.64,7.64,0,0,0-.73,4.58c1.16-4.36,5.81-7.78,10.34-7,2.68.45,5,2.06,7.22,3.63Z" transform="translate(25.72 -125.21)"/><path class="cls-13" d="M202.69,277.55C200,275.91,188.74,271,182.51,271a6.51,6.51,0,0,0-2.62.44,9.1,9.1,0,0,0-4.36,5.37c-1.24,3.37-1.28,7.45-.11,9.92a2,2,0,0,0,.29.44,12.41,12.41,0,0,1,13.22-12.43c4.86.31,9.06,3.38,12.87,6.41l.7.55C202.83,279.72,203,278.1,202.69,277.55Z" transform="translate(25.72 -125.21)"/><path class="cls-13" d="M190.3,305.52a25.21,25.21,0,0,1-5.45-2.07c-3.58-1.61-8-3.61-11.44-3.61h-.34c-2.62.11-4.76,2.83-5.89,5.35-1.49,3.28-1.62,6.82-.33,8.41a8.09,8.09,0,0,0,2.53,1.81,8,8,0,0,1,2.45-8.11c2.67-2.33,6.51-2.93,10-2.37a28.47,28.47,0,0,1,8.22,3A6.9,6.9,0,0,0,190.3,305.52Z" transform="translate(25.72 -125.21)"/><path class="cls-13" d="M171.32,330.81a.92.92,0,0,0-.11-.61c-2.9-2-9-3.53-12.9-3.79h-.1c-1.64,0-4.12,2.29-5.4,5-.49,1-1.49,3.61-.11,5.3a5.11,5.11,0,0,0,1.65,1.25,6.65,6.65,0,0,1,2.9-7.15c2.76-1.78,6.33-1.73,9.56-1.09C168.32,330,169.82,330.42,171.32,330.81Z" transform="translate(25.72 -125.21)"/><path class="cls-7" d="M92.33,371c5.71,10.06,36.7,60.83,86.12,72.86,2.63-.05,16.88-16,20.19-21.46-4.49-.38-18.44-2.68-36.57-16.31-.53,2-1.06,3.93-1.6,5.9-.44,1.65-1,3.45-2.48,4.31a6,6,0,0,1-3.5.51c-15.65-1.13-28.32-12.62-39.6-23.52-9.34-9-18.8-18.3-26.09-29C89.73,366.24,90.89,368.46,92.33,371Z" transform="translate(25.72 -125.21)"/><path class="cls-7" d="M142.87,406.92c-5.8-6-13.48-10.17-19.79-15.66A167.53,167.53,0,0,1,104.25,372c-.35-.43-1.08.14-.76.58A133.31,133.31,0,0,0,121.32,393c6,5.58,13.08,12.28,20.94,14.94A.63.63,0,0,0,142.87,406.92Z" transform="translate(25.72 -125.21)"/><path class="cls-7" d="M150.49,410.41c-.22-.36-.33-.76-.7-1a7.88,7.88,0,0,0-1.44-.68c-1.22-.44-2.43-.8-3.68-1.12a.8.8,0,0,0-.62,1.46c1,.57,2,1.09,3,1.58a13.31,13.31,0,0,0,1.46.62,2.56,2.56,0,0,0,1.64-.12A.51.51,0,0,0,150.49,410.41Z" transform="translate(25.72 -125.21)"/><path class="cls-15" d="M119.19,365c-1-4.49-3.71-8.36-6-12.31-1.28-2.22-2.55-4.45-3.86-6.66a46.94,46.94,0,0,0-4.29-6.5l0,0a.88.88,0,0,0,.13-1l-.08-.19c-.36-.84-1.44-.56-1.87,0-2,2.63,3.2,8.65,4.45,10.91,3,5.46,5.81,12.13,10.44,16.4A.63.63,0,0,0,119.19,365Z" transform="translate(25.72 -125.21)"/><path class="cls-15" d="M125.85,372.43a25.36,25.36,0,0,0-4.69-3.63.73.73,0,0,0-1,1,26.09,26.09,0,0,0,3.74,4.58c1.15,1.19,2.39,3,4.23,2.87a.68.68,0,0,0,.66-.66C128.89,374.73,127.07,373.56,125.85,372.43Z" transform="translate(25.72 -125.21)"/><path class="cls-16" d="M407,340.23a214.88,214.88,0,0,1-32.9,39.89,28.61,28.61,0,0,1-6,4.71c-5.67,3.06-13,1.56-17.8-2.63-17.05,29.29-30.81,36.28-35.51,37.89,4.7,4.31,22.32,16,26.29,16h.15C376.61,416.16,398.49,372.78,407,340.23Z" transform="translate(25.72 -125.21)"/><path class="cls-16" d="M396,345.35c-5.29,3.91-8.83,9.38-12.81,14.57q-3.44,4.47-6.88,8.95c-1.47,1.92-5.7,9.54-8,9.84-.33,0-.48.56-.08.64,1.89.39,2.52-.52,3.94-1.87,3.64-3.44,6.88-7.34,10.17-11.12,5.39-6.2,11.66-12.55,14.64-20.29A.64.64,0,0,0,396,345.35Z" transform="translate(25.72 -125.21)"/><path class="cls-16" d="M404.38,330a.77.77,0,0,0-1.4-.19,33.72,33.72,0,0,0-1.85,4.64,36.6,36.6,0,0,1-3,5.73,1,1,0,0,0,1.62,1.24C402.75,338.73,405.1,334.07,404.38,330Z" transform="translate(25.72 -125.21)"/><path class="cls-17" d="M385.8,308.52a79.43,79.43,0,0,0-4,10.44c-1.2,3.56-2.79,6.94-2.47,10.75.05.61.82,1.09,1.3.54,2.28-2.6,3-5.64,4.05-8.89a88.44,88.44,0,0,0,3.36-11.9C388.25,308.19,386.47,307.2,385.8,308.52Z" transform="translate(25.72 -125.21)"/><path class="cls-17" d="M376.15,336.64c-1.23,2.16-2.41,5.23-1.81,7.71a.67.67,0,0,0,1.1.29c1.92-1.69,2.65-4.94,2.89-7.41C378.45,336,376.69,335.68,376.15,336.64Z" transform="translate(25.72 -125.21)"/></g></svg>