<svg xmlns="http://www.w3.org/2000/svg" viewBox="0 0 123.2 119.57"><defs><style>.cls-1{isolation:isolate;}.cls-2{fill:#fab587;}.cls-3{fill:#ddd0c9;mix-blend-mode:multiply;}.cls-4{fill:#8ca348;}.cls-5{fill:#9ead45;}.cls-6{fill:#808f40;}.cls-7{fill:#67863d;}</style></defs><title>nature</title><g class="cls-1"><g id="Layer_1" data-name="Layer 1"><path class="cls-2" d="M75.51,66.18c-6.87,1.89-16.65-3.06-21.5-4.73-6.14-2.1-19.43,4.81-21.65,9.22-3,6-30.46,26.51-30.46,26.51a88.69,88.69,0,0,0,11.79,15.19,74.47,74.47,0,0,0,13.6,10.91s12.89-20.46,18.2-22c4.95-1.41,29.16,3,48-8.48C93.45,92.82,82.37,64.3,75.51,66.18Z" transform="translate(-1.9 -3.72)"/><path class="cls-2" d="M74.65,66.78s9.86-4.5,11.58-6,7.07-11.36,9.43-15.87,9.65-3.21,8.15,3.86-5.31,15-8.58,19C92.93,70.67,79.37,76,79.37,76Z" transform="translate(-1.9 -3.72)"/><path class="cls-3" d="M90.92,61c3.5-4.1,2.48-9.82,5.73-13.94a15.35,15.35,0,0,1,5.19-4.23,4.57,4.57,0,0,0-6.18,2.11c-2.36,4.51-7.72,14.37-9.43,15.87s-11.58,6-11.58,6l.5,1C81,67.34,87,65.52,90.92,61Z" transform="translate(-1.9 -3.72)"/><path class="cls-2" d="M75.11,73.34S94.34,61.21,96.35,59.46s8.26-13.27,11-18.53,11.26-3.76,9.51,4.51-6.21,17.51-10,22.25c-5.39,6.72-25.33,16.58-25.33,16.58Z" transform="translate(-1.9 -3.72)"/><path class="cls-3" d="M97,63.05c6.73-4.77,10-9.78,12.13-17.58a19.94,19.94,0,0,1,3.59-7.57,5.47,5.47,0,0,0-5.33,3c-2.76,5.26-9,16.78-11,18.53C94.63,61,80.18,70.13,76.15,72.68,83.64,72.39,90.9,67.34,97,63.05Z" transform="translate(-1.9 -3.72)"/><path class="cls-2" d="M78.59,78.11S97.82,66,99.83,64.24s8.26-13.28,11-18.54,11.27-3.75,9.52,4.51-6.21,17.51-10,22.25C105,79.18,85,89.05,85,89.05Z" transform="translate(-1.9 -3.72)"/><path class="cls-3" d="M100.46,67.82c6.73-4.76,10-9.77,12.13-17.57a20,20,0,0,1,3.59-7.58,5.49,5.49,0,0,0-5.34,3c-2.75,5.26-9,16.78-11,18.54-1.73,1.5-16.17,10.67-20.2,13.21C87.12,77.17,94.38,72.12,100.46,67.82Z" transform="translate(-1.9 -3.72)"/><path class="cls-2" d="M83.09,83.92S102.33,71.79,104.33,70s8.26-13.27,11-18.53,11.27-3.76,9.51,4.51-6.21,17.51-10,22.25C109.46,85,89.52,94.85,89.52,94.85Z" transform="translate(-1.9 -3.72)"/><path class="cls-3" d="M105,73.62c6.73-4.76,10-9.77,12.13-17.57a20.08,20.08,0,0,1,3.59-7.57,5.48,5.48,0,0,0-5.33,3c-2.76,5.26-9,16.78-11,18.53-1.72,1.51-16.17,10.67-20.2,13.22C91.62,83,98.88,77.92,105,73.62Z" transform="translate(-1.9 -3.72)"/><path class="cls-4" d="M77,25.61C87.65,38.85,86.21,61,72.8,66.8c-7.75,13.83-33,5.45-41.14-4.63-16-19.82-16-58.45-16-58.45S61,5.79,77,25.61Z" transform="translate(-1.9 -3.72)"/><path class="cls-5" d="M74,22.48C61.15,10.38,36.84,6,24,4.47,33,10.29,44.82,9.33,54.36,14.57,59,17.12,68.1,23.44,74,22.48Z" transform="translate(-1.9 -3.72)"/><path class="cls-6" d="M77.81,41.75c-.67,5-1.93,10.57-5.86,14.15-7.55,6.86-17.18,6-25.78,1.6-8-4.1-15.89-11.41-19.8-19.62-3.2-6.73-4.4-14.14-7.23-21-.95-2.29-2-4.85-3.23-7.31C16.6,21.14,19.5,47.1,31.66,62.17,39.8,72.25,65.05,80.63,72.8,66.8c12.84-5.53,14.7-26.08,5.46-39.44C77.54,32.05,78.34,37.79,77.81,41.75Z" transform="translate(-1.9 -3.72)"/><path class="cls-7" d="M72.8,66.8S72.47,60.36,65.89,51c-14-20-40.42-39.68-40.42-39.68s29.06,16,44.45,36.85C76,56.41,72.8,66.8,72.8,66.8Z" transform="translate(-1.9 -3.72)"/><path class="cls-4" d="M72.06,35.21C63.35,46,64.53,64.05,75.45,68.76,81.77,80,102.34,73.2,109,65c13-16.14,13-47.62,13-47.62S85.08,19.06,72.06,35.21Z" transform="translate(-1.9 -3.72)"/><path class="cls-5" d="M74.46,32.66C85,22.8,104.75,19.22,115.17,18c-7.27,4.74-16.92,4-24.69,8.22C86.68,28.29,79.28,33.44,74.46,32.66Z" transform="translate(-1.9 -3.72)"/><path class="cls-6" d="M71.37,48.36c.55,4.1,1.57,8.61,4.77,11.52,6.16,5.59,14,4.87,21,1.3,6.54-3.33,12.95-9.29,16.13-16,2.6-5.48,3.58-11.51,5.89-17.1.77-1.86,1.6-4,2.62-6C121.23,31.57,118.88,52.71,109,65c-6.62,8.21-27.19,15-33.51,3.77C65,64.26,63.48,47.52,71,36.63,71.59,40.45,70.94,45.13,71.37,48.36Z" transform="translate(-1.9 -3.72)"/><path class="cls-7" d="M75.45,68.76s.27-5.25,5.63-12.91C92.45,39.58,114,23.53,114,23.53s-23.67,13-36.21,30C72.83,60.3,75.45,68.76,75.45,68.76Z" transform="translate(-1.9 -3.72)"/><path class="cls-2" d="M31.34,85.88s3.52-10.68,18-13.25,18,.85,23.15,0,13.61-5,20.2-7.35c7.51-2.62,13.7,2.48,13.68,6.86,0,1.78-9.88,2.17-12.88,5.47s-11.09,7-12.61,11.74S70.36,99.8,67.57,98.94" transform="translate(-1.9 -3.72)"/><path class="cls-3" d="M59.37,74.45c4.78.38,9.82,2,14.57.92,5.38-1.25,10.48-3.65,15.44-6,2.88-1.37,6.75-3.36,10-2.08,1.58.61,5,2.09,7,4-.27-4.31-6.33-9.11-13.66-6.56-6.59,2.31-15,6.49-20.2,7.35-4.09.67-7.15-1.31-15.3-.93-2.2.1-8.46,2.75-10.56,6.1C50.6,73.88,55.15,74.11,59.37,74.45Z" transform="translate(-1.9 -3.72)"/></g></g></svg>